<svg width="91" height="91" viewBox="0 0 91 91" fill="none" xmlns="http://www.w3.org/2000/svg">
<circle cx="45.6565" cy="45.5436" r="43.6282" fill="#505050" stroke="#505050" stroke-width="3"/>
<mask id="path-2-inside-1_410_7" fill="white">
<path fill-rule="evenodd" clip-rule="evenodd" d="M44.4152 28.3949C47.9965 28.3949 51.1586 30.1891 53.0519 32.9276C54.0105 32.6215 55.032 32.4563 56.0921 32.4563C61.6065 32.4563 66.0768 36.9266 66.0768 42.4409C66.0768 42.7289 66.0646 43.0139 66.0407 43.2957C66.1648 43.2901 66.2897 43.2872 66.4152 43.2872C70.9015 43.2872 74.5383 46.924 74.5383 51.4103C74.5383 55.5527 71.4376 58.9708 67.4306 59.4705V59.5334H66.4208C66.419 59.5334 66.4171 59.5334 66.4152 59.5334C66.4133 59.5334 66.4115 59.5334 66.4096 59.5334H25.8055L25.7998 59.5334L25.7942 59.5334H25.1229V59.5056C20.9534 59.1616 17.6768 55.6686 17.6768 51.4103C17.6768 46.924 21.3136 43.2872 25.7998 43.2872L25.7998 43.2871C25.7998 38.8008 29.4367 35.164 33.9229 35.164C34.1483 35.164 34.3716 35.1732 34.5924 35.1912C36.0873 31.2201 39.9213 28.3949 44.4152 28.3949Z"/>
</mask>
<path d="M53.0517 32.9277L50.584 34.6337L51.8476 36.4614L53.9643 35.7855L53.0517 32.9277ZM66.0405 43.2957L63.0512 43.0423L62.7625 46.4476L66.1765 46.2926L66.0405 43.2957ZM67.4304 59.4705L67.0592 56.4936L64.4304 56.8214V59.4705H67.4304ZM67.4304 59.5334V62.5334H70.4304V59.5334H67.4304ZM25.8053 59.5334V56.5334L25.8043 56.5334L25.8053 59.5334ZM25.7997 59.5334L25.7986 62.5334H25.8007L25.7997 59.5334ZM25.794 59.5334L25.7951 56.5334H25.794V59.5334ZM25.1227 59.5334H22.1227V62.5334H25.1227V59.5334ZM25.1227 59.5056H28.1227V56.7429L25.3694 56.5157L25.1227 59.5056ZM25.7997 43.2872V46.2872H28.8256L28.7995 43.2614L25.7997 43.2872ZM25.7997 43.2871H22.7997V43.3001L22.7998 43.313L25.7997 43.2871ZM34.5922 35.1912L34.3483 38.1813L36.6029 38.3652L37.3999 36.2482L34.5922 35.1912ZM55.5194 31.2216C53.0899 27.7075 49.0229 25.3949 44.415 25.3949V31.3949C46.9697 31.3949 49.227 32.6708 50.584 34.6337L55.5194 31.2216ZM56.092 29.4564C54.7185 29.4564 53.3893 29.6706 52.1392 30.0698L53.9643 35.7855C54.6313 35.5725 55.3452 35.4564 56.092 35.4564V29.4564ZM69.0766 42.441C69.0766 35.2698 63.2632 29.4564 56.092 29.4564V35.4564C59.9495 35.4564 63.0766 38.5835 63.0766 42.441H69.0766ZM69.0298 43.5492C69.0608 43.1832 69.0766 42.8136 69.0766 42.441H63.0766C63.0766 42.6442 63.068 42.8447 63.0512 43.0423L69.0298 43.5492ZM66.1765 46.2926C66.2554 46.2891 66.3349 46.2872 66.415 46.2872V40.2872C66.2441 40.2872 66.0739 40.2911 65.9045 40.2988L66.1765 46.2926ZM66.415 46.2872C69.2444 46.2872 71.5381 48.5809 71.5381 51.4103H77.5381C77.5381 45.2672 72.5581 40.2872 66.415 40.2872V46.2872ZM71.5381 51.4103C71.5381 54.0206 69.5833 56.1788 67.0592 56.4936L67.8016 62.4475C73.2916 61.7629 77.5381 57.0848 77.5381 51.4103H71.5381ZM70.4304 59.5334V59.4705H64.4304V59.5334H70.4304ZM66.4207 62.5334H67.4304V56.5334H66.4207V62.5334ZM66.4207 56.5334C66.4188 56.5334 66.4171 56.5334 66.4163 56.5334C66.4158 56.5334 66.4156 56.5334 66.4153 56.5334C66.4151 56.5334 66.415 56.5334 66.415 56.5334V62.5334C66.4169 62.5334 66.4186 62.5334 66.4194 62.5334C66.4199 62.5334 66.4202 62.5334 66.4204 62.5334C66.4206 62.5334 66.4207 62.5334 66.4207 62.5334V56.5334ZM66.415 56.5334C66.4151 56.5334 66.415 56.5334 66.4148 56.5334C66.4145 56.5334 66.4143 56.5334 66.4138 56.5334C66.4129 56.5334 66.4112 56.5334 66.4094 56.5334V62.5334C66.4094 62.5334 66.4095 62.5334 66.4097 62.5334C66.4099 62.5334 66.4102 62.5334 66.4107 62.5334C66.4115 62.5334 66.4132 62.5334 66.415 62.5334V56.5334ZM25.8053 62.5334H66.4094V56.5334H25.8053V62.5334ZM25.8007 62.5334H25.8063L25.8043 56.5334L25.7986 56.5334L25.8007 62.5334ZM25.793 62.5334H25.7986L25.8007 56.5334L25.7951 56.5334L25.793 62.5334ZM25.1227 62.5334H25.794V56.5334H25.1227V62.5334ZM22.1227 59.5056V59.5334H28.1227V59.5056H22.1227ZM14.6766 51.4103C14.6766 57.2428 19.1635 62.0241 24.8761 62.4954L25.3694 56.5157C22.7429 56.2991 20.6766 54.0944 20.6766 51.4103H14.6766ZM25.7997 40.2872C19.6566 40.2872 14.6766 45.2672 14.6766 51.4103H20.6766C20.6766 48.5809 22.9703 46.2872 25.7997 46.2872V40.2872ZM22.7998 43.313L22.7998 43.3131L28.7995 43.2614L28.7995 43.2613L22.7998 43.313ZM33.9227 32.164C27.7796 32.164 22.7997 37.144 22.7997 43.2871H28.7997C28.7997 40.4577 31.0933 38.164 33.9227 38.164V32.164ZM34.8361 32.2012C34.5343 32.1766 34.2297 32.164 33.9227 32.164V38.164C34.0666 38.164 34.2085 38.1699 34.3483 38.1813L34.8361 32.2012ZM44.415 25.3949C38.6315 25.3949 33.7052 29.0325 31.7846 34.1343L37.3999 36.2482C38.4692 33.4077 41.2108 31.3949 44.415 31.3949V25.3949Z" fill="#D0E4D0" mask="url(#path-2-inside-1_410_7)"/>
</svg>
