<svg width="24" height="24" viewBox="0 0 24 24" fill="none" xmlns="http://www.w3.org/2000/svg">
<mask id="path-1-inside-1_258_742" fill="white">
<path fill-rule="evenodd" clip-rule="evenodd" d="M12.3728 11.5493C15.1885 11.5493 17.4711 9.17865 17.4711 6.25428C17.4711 3.3299 15.1885 0.959229 12.3728 0.959229C9.55717 0.959229 7.27463 3.3299 7.27463 6.25428C7.27463 9.17865 9.55717 11.5493 12.3728 11.5493ZM23.1362 23.1197C23.1362 23.1486 23.1361 23.1774 23.1359 23.2063V23.0332C23.1361 23.062 23.1362 23.0908 23.1362 23.1197ZM11.9956 11.549C17.8305 11.549 22.6177 16.2079 23.0968 22.1395H0.894531C1.37363 16.2079 6.1608 11.549 11.9956 11.549Z"/>
</mask>
<path d="M23.1359 23.2063H22.1359L24.1359 23.2133L23.1359 23.2063ZM23.1359 23.0332L24.1359 23.0261L22.1359 23.0332H23.1359ZM23.0968 22.1395V23.1395H24.1808L24.0935 22.0589L23.0968 22.1395ZM0.894531 22.1395L-0.102223 22.0589L-0.189498 23.1395H0.894531V22.1395ZM16.4711 6.25428C16.4711 8.66241 14.6009 10.5493 12.3728 10.5493V12.5493C15.7762 12.5493 18.4711 9.6949 18.4711 6.25428H16.4711ZM12.3728 1.95923C14.6009 1.95923 16.4711 3.84614 16.4711 6.25428H18.4711C18.4711 2.81366 15.7762 -0.0407715 12.3728 -0.0407715V1.95923ZM8.27463 6.25428C8.27463 3.84614 10.1448 1.95923 12.3728 1.95923V-0.0407715C8.96952 -0.0407715 6.27463 2.81366 6.27463 6.25428H8.27463ZM12.3728 10.5493C10.1448 10.5493 8.27463 8.66241 8.27463 6.25428H6.27463C6.27463 9.6949 8.96952 12.5493 12.3728 12.5493V10.5493ZM24.1359 23.2133C24.1361 23.1821 24.1362 23.1509 24.1362 23.1197H22.1362C22.1362 23.1463 22.1361 23.1727 22.1359 23.1992L24.1359 23.2133ZM22.1359 23.0332V23.2063H24.1359V23.0332H22.1359ZM24.1362 23.1197C24.1362 23.0885 24.1361 23.0573 24.1359 23.0261L22.1359 23.0402C22.1361 23.0667 22.1362 23.0932 22.1362 23.1197H24.1362ZM24.0935 22.0589C23.5754 15.6442 18.3871 10.549 11.9956 10.549V12.549C17.2739 12.549 21.6599 16.7717 22.1 22.22L24.0935 22.0589ZM0.894531 23.1395H23.0968V21.1395H0.894531V23.1395ZM11.9956 10.549C5.60424 10.549 0.41591 15.6442 -0.102223 22.0589L1.89129 22.22C2.33135 16.7717 6.71736 12.549 11.9956 12.549V10.549Z" fill="#505050" mask="url(#path-1-inside-1_258_742)"/>
</svg>
