<svg width="323" height="144" viewBox="0 0 323 144" fill="none" xmlns="http://www.w3.org/2000/svg">
<path fill-rule="evenodd" clip-rule="evenodd" d="M72 144C111.765 144 144 111.765 144 72C144 32.2355 111.765 0 72 0C32.2355 0 0 32.2355 0 72C0 111.765 32.2355 144 72 144ZM78.0314 137.969C114.465 137.969 144 108.433 144 72C144 35.5666 114.465 6.03141 78.0314 6.03141C41.598 6.03141 12.0628 35.5666 12.0628 72C12.0628 108.433 41.598 137.969 78.0314 137.969Z" fill="#EDBB57"/>
<path d="M115.772 81.4492C115.772 81.9212 115.753 82.3271 115.715 82.667C115.696 82.988 115.659 83.2712 115.602 83.5166C115.545 83.7432 115.47 83.9414 115.375 84.1113C115.281 84.2812 115.13 84.4795 114.922 84.7061C114.715 84.9137 114.309 85.1875 113.704 85.5273C113.119 85.8672 112.392 86.1976 111.524 86.5186C110.674 86.8206 109.692 87.0755 108.579 87.2832C107.483 87.4909 106.294 87.5947 105.01 87.5947C102.499 87.5947 100.233 87.2077 98.2133 86.4336C96.1931 85.6595 94.475 84.5078 93.059 82.9785C91.643 81.4303 90.5574 79.5046 89.8021 77.2012C89.0469 74.8978 88.6693 72.2168 88.6693 69.1582C88.6693 66.043 89.0847 63.277 89.9154 60.8604C90.7462 58.4437 91.9073 56.4141 93.3988 54.7715C94.8904 53.1289 96.6745 51.8828 98.7514 51.0332C100.847 50.1836 103.15 49.7588 105.662 49.7588C106.681 49.7588 107.663 49.8438 108.607 50.0137C109.551 50.1836 110.419 50.4102 111.212 50.6934C112.024 50.9577 112.751 51.2692 113.393 51.6279C114.035 51.9867 114.479 52.2982 114.724 52.5625C114.988 52.8079 115.168 53.0156 115.262 53.1855C115.357 53.3555 115.432 53.5726 115.489 53.8369C115.545 54.1012 115.583 54.4128 115.602 54.7715C115.64 55.1302 115.659 55.5739 115.659 56.1025C115.659 56.6689 115.64 57.1504 115.602 57.5469C115.564 57.9434 115.498 58.2643 115.404 58.5098C115.309 58.7552 115.196 58.9346 115.064 59.0479C114.932 59.1611 114.781 59.2178 114.611 59.2178C114.328 59.2178 113.969 59.0573 113.535 58.7363C113.1 58.3965 112.534 58.0283 111.835 57.6318C111.156 57.2165 110.334 56.8483 109.371 56.5273C108.427 56.1875 107.295 56.0176 105.973 56.0176C104.519 56.0176 103.217 56.3197 102.065 56.9238C100.932 57.5091 99.9597 58.3587 99.1479 59.4727C98.3549 60.5677 97.7507 61.8988 97.3354 63.4658C96.92 65.0329 96.7123 66.7982 96.7123 68.7617C96.7123 70.9141 96.9294 72.7832 97.3637 74.3691C97.8168 75.9362 98.4493 77.2295 99.2611 78.249C100.092 79.2686 101.083 80.0332 102.235 80.543C103.405 81.0339 104.718 81.2793 106.171 81.2793C107.493 81.2793 108.635 81.1283 109.598 80.8262C110.561 80.5052 111.382 80.1559 112.062 79.7783C112.76 79.4007 113.327 79.0609 113.761 78.7588C114.214 78.4567 114.564 78.3057 114.809 78.3057C114.998 78.3057 115.149 78.3434 115.262 78.4189C115.375 78.4945 115.47 78.6455 115.545 78.8721C115.621 79.0986 115.677 79.4196 115.715 79.835C115.753 80.2314 115.772 80.7695 115.772 81.4492ZM156.246 68.252C156.246 71.2917 155.869 74.0104 155.113 76.4082C154.358 78.806 153.235 80.8451 151.743 82.5254C150.252 84.1868 148.401 85.4613 146.192 86.3486C144.002 87.2171 141.463 87.6514 138.574 87.6514C135.723 87.6514 133.231 87.2832 131.098 86.5469C128.983 85.7917 127.218 84.6494 125.802 83.1201C124.386 81.5908 123.319 79.6462 122.602 77.2861C121.903 74.9261 121.554 72.1318 121.554 68.9033C121.554 65.9391 121.931 63.277 122.687 60.917C123.442 58.5381 124.565 56.5179 126.057 54.8564C127.548 53.195 129.389 51.9206 131.579 51.0332C133.788 50.1458 136.346 49.7021 139.254 49.7021C142.029 49.7021 144.474 50.0703 146.589 50.8066C148.722 51.543 150.497 52.6758 151.913 54.2051C153.348 55.7344 154.424 57.6696 155.142 60.0107C155.878 62.333 156.246 65.0801 156.246 68.252ZM148.43 68.6484C148.43 66.7227 148.279 64.9762 147.977 63.4092C147.675 61.8232 147.155 60.4733 146.419 59.3594C145.702 58.2266 144.739 57.3581 143.53 56.7539C142.322 56.1309 140.812 55.8193 138.999 55.8193C137.168 55.8193 135.638 56.1686 134.411 56.8672C133.184 57.5469 132.193 58.4626 131.438 59.6143C130.682 60.766 130.144 62.1159 129.823 63.6641C129.521 65.1934 129.37 66.8171 129.37 68.5352C129.37 70.5365 129.521 72.3395 129.823 73.9443C130.125 75.5303 130.635 76.8896 131.353 78.0225C132.07 79.1553 133.033 80.0238 134.241 80.6279C135.45 81.2132 136.969 81.5059 138.801 81.5059C140.632 81.5059 142.161 81.166 143.389 80.4863C144.616 79.8066 145.607 78.8815 146.362 77.7109C147.118 76.5404 147.646 75.181 147.948 73.6328C148.269 72.0658 148.43 70.4043 148.43 68.6484ZM207.85 85.9805C207.85 86.1693 207.794 86.3392 207.68 86.4902C207.586 86.6413 207.397 86.764 207.114 86.8584C206.85 86.9528 206.491 87.0283 206.038 87.085C205.585 87.1416 205.009 87.1699 204.31 87.1699C203.631 87.1699 203.064 87.1416 202.611 87.085C202.158 87.0283 201.799 86.9528 201.535 86.8584C201.271 86.764 201.082 86.6413 200.968 86.4902C200.855 86.3392 200.799 86.1693 200.799 85.9805V56.1592H200.742L190.122 85.9521C190.046 86.1976 189.924 86.4053 189.754 86.5752C189.584 86.7262 189.348 86.849 189.046 86.9434C188.762 87.0378 188.394 87.0944 187.941 87.1133C187.488 87.151 186.94 87.1699 186.299 87.1699C185.657 87.1699 185.109 87.1416 184.656 87.085C184.203 87.0472 183.825 86.9811 183.523 86.8867C183.24 86.7734 183.013 86.6413 182.843 86.4902C182.674 86.3392 182.56 86.1598 182.504 85.9521L172.252 56.1592H172.195V85.9805C172.195 86.1693 172.138 86.3392 172.025 86.4902C171.931 86.6413 171.742 86.764 171.459 86.8584C171.175 86.9528 170.807 87.0283 170.354 87.085C169.92 87.1416 169.354 87.1699 168.655 87.1699C167.975 87.1699 167.409 87.1416 166.956 87.085C166.503 87.0283 166.134 86.9528 165.851 86.8584C165.587 86.764 165.398 86.6413 165.285 86.4902C165.19 86.3392 165.143 86.1693 165.143 85.9805V53.3271C165.143 52.3643 165.398 51.6279 165.908 51.1182C166.418 50.6084 167.097 50.3535 167.947 50.3535H172.818C173.687 50.3535 174.432 50.429 175.055 50.5801C175.678 50.7122 176.216 50.9482 176.67 51.2881C177.123 51.609 177.5 52.0433 177.802 52.5908C178.105 53.1195 178.369 53.7803 178.595 54.5732L186.525 76.4082H186.638L194.851 54.6299C195.097 53.8369 195.361 53.1667 195.644 52.6191C195.946 52.0716 196.286 51.6279 196.664 51.2881C197.06 50.9482 197.523 50.7122 198.051 50.5801C198.58 50.429 199.194 50.3535 199.892 50.3535H204.905C205.415 50.3535 205.849 50.4196 206.208 50.5518C206.585 50.6839 206.887 50.8822 207.114 51.1465C207.359 51.3919 207.539 51.7035 207.652 52.0811C207.784 52.4398 207.85 52.8551 207.85 53.3271V85.9805ZM244.983 76.0117C244.983 77.3145 244.803 78.4945 244.445 79.5518C244.086 80.609 243.586 81.5436 242.944 82.3555C242.321 83.1673 241.565 83.8659 240.678 84.4512C239.81 85.0365 238.847 85.5179 237.789 85.8955C236.732 86.2731 235.599 86.5563 234.391 86.7451C233.201 86.915 231.87 87 230.398 87H220.656C220.033 87 219.504 86.8206 219.07 86.4619C218.654 86.0843 218.447 85.4801 218.447 84.6494V52.7041C218.447 51.8734 218.654 51.2786 219.07 50.9199C219.504 50.5423 220.033 50.3535 220.656 50.3535H229.86C232.106 50.3535 234.004 50.5423 235.552 50.9199C237.119 51.2975 238.431 51.8734 239.489 52.6475C240.565 53.4027 241.386 54.3656 241.952 55.5361C242.519 56.7067 242.802 58.085 242.802 59.6709C242.802 60.5583 242.689 61.3984 242.462 62.1914C242.236 62.9655 241.905 63.6735 241.471 64.3154C241.037 64.9574 240.499 65.5238 239.857 66.0146C239.234 66.5055 238.516 66.902 237.704 67.2041C238.743 67.3929 239.696 67.7233 240.565 68.1953C241.452 68.6673 242.217 69.2809 242.859 70.0361C243.52 70.7725 244.039 71.641 244.416 72.6416C244.794 73.6423 244.983 74.7656 244.983 76.0117ZM235.354 60.5771C235.354 59.8408 235.241 59.18 235.014 58.5947C234.787 58.0094 234.448 57.528 233.994 57.1504C233.541 56.7539 232.965 56.4518 232.267 56.2441C231.587 56.0365 230.672 55.9326 229.52 55.9326H225.753V65.4482H229.916C230.992 65.4482 231.852 65.3255 232.493 65.0801C233.135 64.8158 233.664 64.4665 234.079 64.0322C234.514 63.5791 234.835 63.0599 235.042 62.4746C235.25 61.8704 235.354 61.238 235.354 60.5771ZM237.251 76.2666C237.251 75.417 237.11 74.6618 236.826 74.001C236.543 73.3213 236.128 72.7549 235.58 72.3018C235.033 71.8486 234.334 71.4993 233.485 71.2539C232.635 71.0085 231.531 70.8857 230.171 70.8857H225.753V81.3076H231.134C232.173 81.3076 233.041 81.2038 233.74 80.9961C234.457 80.7695 235.071 80.4486 235.58 80.0332C236.109 79.599 236.515 79.0703 236.798 78.4473C237.1 77.8053 237.251 77.0785 237.251 76.2666ZM266.397 73.0947V85.9805C266.397 86.1693 266.331 86.3392 266.199 86.4902C266.086 86.6413 265.888 86.764 265.604 86.8584C265.321 86.9528 264.934 87.0283 264.443 87.085C263.971 87.1416 263.377 87.1699 262.659 87.1699C261.923 87.1699 261.319 87.1416 260.847 87.085C260.375 87.0283 259.988 86.9528 259.686 86.8584C259.402 86.764 259.204 86.6413 259.091 86.4902C258.978 86.3392 258.921 86.1693 258.921 85.9805V73.0947L248.895 53.1289C248.537 52.4303 248.301 51.8923 248.187 51.5146C248.093 51.1182 248.15 50.8255 248.357 50.6367C248.584 50.429 248.99 50.3063 249.575 50.2686C250.16 50.2119 250.972 50.1836 252.011 50.1836C252.879 50.1836 253.568 50.2025 254.078 50.2402C254.607 50.278 255.022 50.3535 255.324 50.4668C255.626 50.5612 255.843 50.6934 255.976 50.8633C256.127 51.0332 256.268 51.2503 256.4 51.5146L260.478 60.5205C260.875 61.389 261.262 62.3047 261.64 63.2676C262.036 64.2305 262.433 65.2406 262.829 66.2979H262.886C263.244 65.2783 263.613 64.2871 263.99 63.3242C264.368 62.3613 264.736 61.4456 265.095 60.5771L269.116 51.6279C269.211 51.3258 269.324 51.0898 269.456 50.9199C269.607 50.7311 269.824 50.5801 270.107 50.4668C270.391 50.3535 270.778 50.278 271.269 50.2402C271.759 50.2025 272.411 50.1836 273.223 50.1836C274.299 50.1836 275.13 50.2119 275.715 50.2686C276.319 50.3063 276.725 50.429 276.933 50.6367C277.159 50.8255 277.216 51.1182 277.103 51.5146C276.989 51.9111 276.763 52.4492 276.423 53.1289L266.397 73.0947ZM314.546 84.3945C314.546 84.8288 314.471 85.2158 314.32 85.5557C314.169 85.8955 313.961 86.1787 313.697 86.4053C313.451 86.6318 313.149 86.8018 312.791 86.915C312.451 87.0094 312.101 87.0566 311.743 87.0566H308.571C307.91 87.0566 307.334 86.9906 306.843 86.8584C306.371 86.7262 305.928 86.4902 305.512 86.1504C305.116 85.7917 304.729 85.3197 304.351 84.7344C303.974 84.1302 303.549 83.3561 303.077 82.4121L293.958 65.2783C293.429 64.2588 292.891 63.1637 292.343 61.9932C291.796 60.8037 291.305 59.652 290.871 58.5381H290.814C290.89 59.8975 290.946 61.2568 290.984 62.6162C291.022 63.9567 291.041 65.3444 291.041 66.7793V85.9521C291.041 86.141 290.984 86.3109 290.871 86.4619C290.776 86.613 290.597 86.7451 290.333 86.8584C290.087 86.9528 289.747 87.0283 289.313 87.085C288.879 87.1416 288.322 87.1699 287.642 87.1699C286.981 87.1699 286.434 87.1416 286 87.085C285.565 87.0283 285.226 86.9528 284.98 86.8584C284.735 86.7451 284.565 86.613 284.47 86.4619C284.376 86.3109 284.329 86.141 284.329 85.9521V53.0156C284.329 52.1283 284.584 51.4674 285.093 51.0332C285.622 50.5801 286.264 50.3535 287.019 50.3535H291.012C291.73 50.3535 292.334 50.4196 292.825 50.5518C293.316 50.665 293.75 50.8633 294.128 51.1465C294.524 51.4297 294.892 51.8262 295.232 52.3359C295.572 52.8268 295.921 53.4404 296.28 54.1768L303.417 67.5723C303.832 68.3841 304.238 69.1865 304.634 69.9795C305.05 70.7536 305.446 71.5371 305.824 72.3301C306.201 73.1042 306.57 73.8688 306.928 74.624C307.287 75.3792 307.636 76.1344 307.976 76.8896H308.004C307.948 75.568 307.901 74.1898 307.863 72.7549C307.844 71.32 307.835 69.9512 307.835 68.6484V51.458C307.835 51.2692 307.891 51.0993 308.004 50.9482C308.118 50.7972 308.307 50.665 308.571 50.5518C308.835 50.4385 309.184 50.363 309.619 50.3252C310.053 50.2686 310.61 50.2402 311.29 50.2402C311.932 50.2402 312.47 50.2686 312.904 50.3252C313.338 50.363 313.669 50.4385 313.895 50.5518C314.141 50.665 314.31 50.7972 314.405 50.9482C314.499 51.0993 314.546 51.2692 314.546 51.458V84.3945Z" fill="#EBEAF2"/>
<path d="M115.715 82.667L114.721 82.5566L114.718 82.5824L114.717 82.6083L115.715 82.667ZM115.602 83.5166L116.572 83.7591L116.574 83.7503L116.576 83.7415L115.602 83.5166ZM115.375 84.1113L116.25 84.597L115.375 84.1113ZM114.922 84.7061L115.629 85.4132L115.645 85.3978L115.659 85.3818L114.922 84.7061ZM113.704 85.5273L113.214 84.6557L113.202 84.6626L113.704 85.5273ZM111.524 86.5186L111.859 87.4608L111.87 87.4565L111.524 86.5186ZM108.579 87.2832L108.395 86.3001L108.392 86.3007L108.579 87.2832ZM93.059 82.9785L92.3211 83.6534L92.3252 83.6579L93.059 82.9785ZM89.9154 60.8604L88.9697 60.5353L89.9154 60.8604ZM93.3988 54.7715L92.6585 54.0992L93.3988 54.7715ZM98.7514 51.0332L98.3757 50.1065L98.3727 50.1077L98.7514 51.0332ZM111.212 50.6934L110.876 51.6351L110.889 51.6399L110.903 51.6442L111.212 50.6934ZM114.724 52.5625L113.991 53.243L114.016 53.2701L114.044 53.2953L114.724 52.5625ZM115.602 54.7715L114.603 54.824L114.605 54.8502L114.607 54.8762L115.602 54.7715ZM115.404 58.5098L116.337 58.8687L115.404 58.5098ZM113.535 58.7363L112.918 59.5238L112.929 59.5323L112.94 59.5405L113.535 58.7363ZM111.835 57.6318L111.314 58.4851L111.328 58.4935L111.342 58.5015L111.835 57.6318ZM109.371 56.5273L109.033 57.4682L109.044 57.4723L109.055 57.476L109.371 56.5273ZM102.065 56.9238L102.524 57.8123L102.529 57.8094L102.065 56.9238ZM99.1479 59.4727L98.3397 58.8837L98.3379 58.8861L99.1479 59.4727ZM97.3637 74.3691L96.3992 74.6332L96.401 74.6401L96.403 74.6469L97.3637 74.3691ZM99.2611 78.249L98.4788 78.872L98.4859 78.8807L99.2611 78.249ZM102.235 80.543L101.83 81.4574L101.839 81.4614L101.848 81.4652L102.235 80.543ZM109.598 80.8262L109.897 81.7803L109.906 81.7777L109.914 81.7749L109.598 80.8262ZM112.062 79.7783L111.586 78.8986L111.576 78.9042L112.062 79.7783ZM113.761 78.7588L113.206 77.9267L113.198 77.9322L113.19 77.9379L113.761 78.7588ZM115.715 79.835L114.719 79.9255L114.72 79.9298L115.715 79.835ZM114.772 81.4492C114.772 81.8971 114.754 82.2642 114.721 82.5566L116.709 82.7774C116.752 82.3901 116.772 81.9454 116.772 81.4492H114.772ZM114.717 82.6083C114.701 82.8878 114.669 83.1134 114.628 83.2917L116.576 83.7415C116.648 83.4289 116.692 83.0881 116.714 82.7257L114.717 82.6083ZM114.632 83.2741C114.592 83.4322 114.546 83.5458 114.501 83.6257L116.25 84.597C116.394 84.337 116.498 84.0541 116.572 83.7591L114.632 83.2741ZM114.501 83.6257C114.46 83.6994 114.367 83.8323 114.185 84.0303L115.659 85.3818C115.893 85.1267 116.102 84.8631 116.25 84.597L114.501 83.6257ZM114.215 83.9989C114.114 84.1 113.817 84.3166 113.214 84.6558L114.195 86.3989C114.8 86.0584 115.315 85.7274 115.629 85.4132L114.215 83.9989ZM113.202 84.6626C112.681 84.9653 112.01 85.2728 111.177 85.5806L111.87 87.4565C112.775 87.1224 113.557 86.7691 114.207 86.3921L113.202 84.6626ZM111.189 85.5763C110.399 85.8571 109.47 86.0998 108.395 86.3001L108.762 88.2663C109.915 88.0513 110.949 87.7842 111.859 87.4608L111.189 85.5763ZM108.392 86.3007C107.367 86.4952 106.241 86.5947 105.01 86.5947V88.5947C106.347 88.5947 107.6 88.4866 108.765 88.2657L108.392 86.3007ZM105.01 86.5947C102.602 86.5947 100.46 86.2237 98.5711 85.4998L97.8555 87.3674C100.007 88.1917 102.396 88.5947 105.01 88.5947V86.5947ZM98.5711 85.4998C96.6885 84.7784 95.1006 83.7116 93.7927 82.2991L92.3252 83.6579C93.8494 85.304 95.6977 86.5406 97.8555 87.3674L98.5711 85.4998ZM93.7969 82.3036C92.4904 80.8752 91.4702 79.079 90.7524 76.8896L88.8519 77.5127C89.6445 79.9301 90.7956 81.9855 92.3211 83.6534L93.7969 82.3036ZM90.7524 76.8896C90.0375 74.7091 89.6693 72.1374 89.6693 69.1582H87.6693C87.6693 72.2962 88.0564 75.0864 88.8519 77.5127L90.7524 76.8896ZM89.6693 69.1582C89.6693 66.1302 90.0732 63.4774 90.8611 61.1854L88.9697 60.5353C88.0962 63.0766 87.6693 65.9557 87.6693 69.1582H89.6693ZM90.8611 61.1854C91.6543 58.8779 92.7518 56.9716 94.1392 55.4437L92.6585 54.0992C91.0628 55.8565 89.838 58.0095 88.9697 60.5353L90.8611 61.1854ZM94.1392 55.4437C95.5293 53.9128 97.1895 52.7526 99.13 51.9587L98.3727 50.1077C96.1596 51.013 94.2514 52.345 92.6585 54.0992L94.1392 55.4437ZM99.1271 51.9599C101.091 51.1638 103.265 50.7588 105.662 50.7588V48.7588C103.036 48.7588 100.603 49.2034 98.3757 50.1065L99.1271 51.9599ZM105.662 50.7588C106.625 50.7588 107.548 50.8391 108.43 50.9979L108.784 49.0295C107.778 48.8484 106.737 48.7588 105.662 48.7588V50.7588ZM108.43 50.9979C109.327 51.1593 110.141 51.3727 110.876 51.6351L111.549 49.7516C110.697 49.4476 109.775 49.2078 108.784 49.0295L108.43 50.9979ZM110.903 51.6442C111.662 51.8916 112.328 52.1784 112.905 52.5009L113.881 50.755C113.174 50.36 112.386 50.0238 111.522 49.7425L110.903 51.6442ZM112.905 52.5009C113.53 52.8501 113.858 53.0993 113.991 53.243L115.457 51.882C115.099 51.497 114.54 51.1232 113.881 50.755L112.905 52.5009ZM114.044 53.2953C114.285 53.5193 114.371 53.6411 114.388 53.6712L116.136 52.6999C115.964 52.3902 115.692 52.0966 115.404 51.8297L114.044 53.2953ZM114.388 53.6712C114.42 53.7283 114.467 53.844 114.511 54.0464L116.466 53.6274C116.397 53.3011 116.293 52.9826 116.136 52.6999L114.388 53.6712ZM114.511 54.0464C114.554 54.2454 114.586 54.5021 114.603 54.824L116.601 54.7189C116.58 54.3234 116.537 53.957 116.466 53.6274L114.511 54.0464ZM114.607 54.8762C114.64 55.1882 114.659 55.5944 114.659 56.1025H116.659C116.659 55.5534 116.639 55.0722 116.596 54.6668L114.607 54.8762ZM114.659 56.1025C114.659 56.6493 114.64 57.0971 114.606 57.4521L116.597 57.6417C116.639 57.2036 116.659 56.6886 116.659 56.1025H114.659ZM114.606 57.4521C114.573 57.7994 114.52 58.0218 114.47 58.1508L116.337 58.8687C116.476 58.5069 116.555 58.0873 116.597 57.6417L114.606 57.4521ZM114.47 58.1508C114.441 58.2263 114.417 58.2713 114.402 58.2944C114.388 58.3174 114.389 58.3093 114.413 58.2886L115.715 59.8071C116.021 59.5446 116.211 59.1964 116.337 58.8687L114.47 58.1508ZM114.413 58.2886C114.429 58.2752 114.458 58.2548 114.5 58.239C114.543 58.223 114.582 58.2178 114.611 58.2178V60.2178C115.026 60.2178 115.406 60.0716 115.715 59.8071L114.413 58.2886ZM114.611 58.2178C114.653 58.2178 114.635 58.2282 114.538 58.1846C114.443 58.1424 114.308 58.0645 114.129 57.9322L112.94 59.5405C113.413 59.8901 113.992 60.2178 114.611 60.2178V58.2178ZM114.151 57.9488C113.665 57.5683 113.053 57.173 112.329 56.7621L111.342 58.5015C112.015 58.8836 112.536 59.2247 112.918 59.5238L114.151 57.9488ZM112.357 56.7786C111.598 56.3147 110.704 55.9174 109.688 55.5787L109.055 57.476C109.965 57.7792 110.714 58.1182 111.314 58.4851L112.357 56.7786ZM109.71 55.5865C108.629 55.1973 107.376 55.0176 105.973 55.0176V57.0176C107.214 57.0176 108.226 57.1777 109.033 57.4682L109.71 55.5865ZM105.973 55.0176C104.377 55.0176 102.911 55.3504 101.6 56.0383L102.529 57.8094C103.522 57.2889 104.662 57.0176 105.973 57.0176V55.0176ZM101.606 56.0354C100.324 56.6977 99.2355 57.6545 98.3397 58.8837L99.956 60.0616C100.684 59.0629 101.54 58.3205 102.524 57.8123L101.606 56.0354ZM98.3379 58.8861C97.4601 60.0984 96.8095 61.5468 96.3687 63.2096L98.302 63.722C98.692 62.2507 99.2497 61.037 99.9578 60.0592L98.3379 58.8861ZM96.3687 63.2096C95.9271 64.8757 95.7123 66.7292 95.7123 68.7617H97.7123C97.7123 66.8671 97.9128 65.1901 98.302 63.722L96.3687 63.2096ZM95.7123 68.7617C95.7123 70.9775 95.9354 72.9395 96.3992 74.6332L98.3282 74.1051C97.9234 72.6269 97.7123 70.8507 97.7123 68.7617H95.7123ZM96.403 74.6469C96.8836 76.3091 97.5679 77.7279 98.4789 78.872L100.043 77.6261C99.3307 76.7311 98.7499 75.5633 98.3243 74.0914L96.403 74.6469ZM98.4859 78.8807C99.4116 80.0168 100.528 80.881 101.83 81.4574L102.64 79.6285C101.638 79.1854 100.772 78.5203 100.036 77.6174L98.4859 78.8807ZM101.848 81.4652C103.158 82.0143 104.604 82.2793 106.171 82.2793V80.2793C104.831 80.2793 103.653 80.0534 102.621 79.6208L101.848 81.4652ZM106.171 82.2793C107.565 82.2793 108.813 82.1205 109.897 81.7803L109.299 79.872C108.457 80.136 107.421 80.2793 106.171 80.2793V82.2793ZM109.914 81.7749C110.919 81.4399 111.8 81.0676 112.548 80.6525L111.576 78.9042C110.964 79.2443 110.203 79.5705 109.282 79.8775L109.914 81.7749ZM112.537 80.658C113.254 80.2705 113.856 79.9109 114.332 79.5797L113.19 77.9379C112.798 78.2109 112.267 78.5309 111.586 78.8986L112.537 80.658ZM114.316 79.5908C114.512 79.4601 114.658 79.3808 114.76 79.3368C114.871 79.2888 114.877 79.3057 114.809 79.3057V77.3057C114.496 77.3057 114.204 77.3981 113.966 77.5011C113.718 77.6082 113.464 77.7553 113.206 77.9267L114.316 79.5908ZM114.809 79.3057C114.838 79.3057 114.84 79.3087 114.821 79.3041C114.801 79.2991 114.759 79.2852 114.707 79.251L115.817 77.5869C115.487 77.3671 115.121 77.3057 114.809 77.3057V79.3057ZM114.707 79.251C114.616 79.1897 114.576 79.1282 114.57 79.1189C114.564 79.1091 114.576 79.1263 114.597 79.1883L116.494 78.5558C116.396 78.2605 116.21 77.8489 115.817 77.5869L114.707 79.251ZM114.597 79.1883C114.636 79.307 114.684 79.5391 114.719 79.9255L116.711 79.7444C116.671 79.3001 116.605 78.8903 116.494 78.5558L114.597 79.1883ZM114.72 79.9298C114.753 80.2804 114.772 80.7825 114.772 81.4492H116.772C116.772 80.7566 116.753 80.1825 116.711 79.7402L114.72 79.9298ZM151.743 82.5254L152.487 83.1934L152.491 83.1892L151.743 82.5254ZM146.192 86.3486L146.561 87.2782L146.565 87.2766L146.192 86.3486ZM131.098 86.5469L130.761 87.4887L130.771 87.4922L131.098 86.5469ZM122.602 77.2861L121.643 77.57L121.645 77.577L122.602 77.2861ZM122.687 60.917L123.639 61.2218L123.64 61.2196L122.687 60.917ZM126.057 54.8564L125.313 54.1884L126.057 54.8564ZM131.579 51.0332L131.206 50.1053L131.204 50.1064L131.579 51.0332ZM146.589 50.8066L146.26 51.751L146.263 51.7519L146.589 50.8066ZM151.913 54.2051L151.179 54.8845L151.184 54.8893L151.913 54.2051ZM155.142 60.0107L154.185 60.3038L154.188 60.313L155.142 60.0107ZM147.977 63.4092L146.994 63.5963L146.995 63.5985L147.977 63.4092ZM146.419 59.3594L145.574 59.8944L145.579 59.9027L145.585 59.9108L146.419 59.3594ZM143.53 56.7539L143.072 57.6428L143.083 57.6483L143.53 56.7539ZM134.411 56.8672L134.896 57.742L134.906 57.7363L134.411 56.8672ZM129.823 63.6641L128.844 63.4611L128.842 63.4703L129.823 63.6641ZM129.823 73.9443L128.841 74.1293L128.841 74.1314L129.823 73.9443ZM134.241 80.6279L133.794 81.5224L133.805 81.5279L134.241 80.6279ZM147.948 73.6328L146.969 73.4321L146.967 73.4413L147.948 73.6328ZM155.246 68.252C155.246 71.2103 154.878 73.825 154.16 76.1078L156.067 76.7086C156.859 74.1958 157.246 71.373 157.246 68.252H155.246ZM154.16 76.1078C153.442 78.3873 152.383 80.2984 150.995 81.8615L152.491 83.1892C154.087 81.3917 155.275 79.2247 156.067 76.7086L154.16 76.1078ZM150.999 81.8574C149.617 83.3974 147.896 84.5865 145.82 85.4207L146.565 87.2766C148.907 86.336 150.887 84.9763 152.487 83.1934L150.999 81.8574ZM145.824 85.4191C143.774 86.2318 141.364 86.6514 138.574 86.6514V88.6514C141.561 88.6514 144.23 88.2024 146.561 87.2782L145.824 85.4191ZM138.574 86.6514C135.806 86.6514 133.429 86.2936 131.424 85.6016L130.771 87.4922C133.033 88.2728 135.64 88.6514 138.574 88.6514V86.6514ZM131.434 85.6051C129.459 84.8998 127.834 83.8428 126.536 82.4407L125.068 83.7995C126.602 85.456 128.507 86.6835 130.761 87.4886L131.434 85.6051ZM126.536 82.4407C125.24 81.041 124.24 79.2369 123.558 76.9953L121.645 77.577C122.398 80.0554 123.532 82.1407 125.068 83.7995L126.536 82.4407ZM123.56 77.0023C122.896 74.758 122.554 72.0638 122.554 68.9033H120.554C120.554 72.1998 120.91 75.0943 121.643 77.57L123.56 77.0023ZM122.554 68.9033C122.554 66.0229 122.921 63.4661 123.639 61.2218L121.734 60.6122C120.942 63.0879 120.554 65.8553 120.554 68.9033H122.554ZM123.64 61.2196C124.357 58.9599 125.415 57.0685 126.801 55.5245L125.313 54.1884C123.716 55.9673 122.527 58.1163 121.733 60.6144L123.64 61.2196ZM126.801 55.5245C128.185 53.9828 129.897 52.7937 131.955 51.96L131.204 50.1064C128.881 51.0475 126.912 52.4072 125.313 54.1884L126.801 55.5245ZM131.952 51.9611C134.019 51.1306 136.447 50.7021 139.254 50.7021V48.7021C136.246 48.7021 133.557 49.161 131.206 50.1053L131.952 51.9611ZM139.254 50.7021C141.943 50.7021 144.273 51.0591 146.26 51.751L146.918 49.8623C144.676 49.0815 142.116 48.7021 139.254 48.7021V50.7021ZM146.263 51.7519C148.254 52.4391 149.884 53.4859 151.179 54.8845L152.647 53.5257C151.11 51.8657 149.191 50.6468 146.915 49.8614L146.263 51.7519ZM151.184 54.8893C152.498 56.29 153.505 58.0842 154.186 60.3037L156.098 59.7177C155.343 57.255 154.198 55.1787 152.642 53.5208L151.184 54.8893ZM154.188 60.313C154.886 62.5131 155.246 65.1535 155.246 68.252H157.246C157.246 65.0067 156.87 62.1529 156.095 59.7085L154.188 60.313ZM149.43 68.6484C149.43 66.6717 149.275 64.8605 148.959 63.2199L146.995 63.5985C147.283 65.0919 147.43 66.7736 147.43 68.6484H149.43ZM148.959 63.2221C148.637 61.5326 148.076 60.0528 147.253 58.8079L145.585 59.9108C146.235 60.8938 146.712 62.1139 146.994 63.5963L148.959 63.2221ZM147.264 58.8243C146.448 57.5366 145.347 56.5444 143.978 55.8595L143.083 57.6483C144.13 58.1718 144.955 58.9166 145.574 59.8944L147.264 58.8243ZM143.989 55.8651C142.599 55.1488 140.92 54.8193 138.999 54.8193V56.8193C140.703 56.8193 142.045 57.113 143.072 57.6427L143.989 55.8651ZM138.999 54.8193C137.044 54.8193 135.333 55.1919 133.916 55.9981L134.906 57.7363C135.944 57.1453 137.291 56.8193 138.999 56.8193V54.8193ZM133.927 55.9924C132.56 56.7492 131.447 57.7759 130.601 59.0659L132.274 60.1626C132.938 59.1493 133.808 58.3445 134.896 57.742L133.927 55.9924ZM130.601 59.0659C129.768 60.3371 129.187 61.8078 128.844 63.4611L130.802 63.8671C131.102 62.4239 131.597 61.1948 132.274 60.1626L130.601 59.0659ZM128.842 63.4703C128.526 65.0695 128.37 66.7585 128.37 68.5352H130.37C130.37 66.8756 130.516 65.3172 130.804 63.8578L128.842 63.4703ZM128.37 68.5352C128.37 70.5852 128.525 72.4517 128.841 74.1293L130.806 73.7593C130.518 72.2273 130.37 70.4877 130.37 68.5352H128.37ZM128.841 74.1314C129.162 75.8164 129.711 77.2991 130.508 78.5575L132.197 77.4874C131.559 76.4802 131.089 75.2441 130.806 73.7572L128.841 74.1314ZM130.508 78.5575C131.323 79.8453 132.424 80.8375 133.794 81.5224L134.688 79.7335C133.642 79.2101 132.817 78.4653 132.197 77.4874L130.508 78.5575ZM133.805 81.5279C135.19 82.1985 136.87 82.5059 138.801 82.5059V80.5059C137.068 80.5059 135.709 80.228 134.677 79.7279L133.805 81.5279ZM138.801 82.5059C140.751 82.5059 142.459 82.1443 143.873 81.3611L142.904 79.6115C141.864 80.1878 140.513 80.5059 138.801 80.5059V82.5059ZM143.873 81.3611C145.244 80.6022 146.357 79.5632 147.203 78.2531L145.522 77.1688C144.857 78.1998 143.988 79.0111 142.904 79.6115L143.873 81.3611ZM147.203 78.2531C148.035 76.9625 148.607 75.4809 148.93 73.8243L146.967 73.4413C146.686 74.8811 146.2 76.1183 145.522 77.1688L147.203 78.2531ZM148.928 73.8335C149.264 72.1943 149.43 70.4652 149.43 68.6484H147.43C147.43 70.3434 147.275 71.9372 146.969 73.4322L148.928 73.8335ZM207.68 86.4902L206.88 85.8902L206.855 85.9242L206.832 85.9602L207.68 86.4902ZM207.114 86.8584L206.798 85.9097L206.788 85.9131L206.778 85.9167L207.114 86.8584ZM200.799 56.1592H201.799V55.1592H200.799V56.1592ZM200.742 56.1592V55.1592H200.037L199.8 55.8234L200.742 56.1592ZM190.122 85.9521L189.18 85.6164L189.172 85.6371L189.166 85.6581L190.122 85.9521ZM189.754 86.5752L190.418 87.3226L190.44 87.3031L190.461 87.2823L189.754 86.5752ZM189.046 86.9434L188.747 85.9889L188.738 85.9917L188.729 85.9947L189.046 86.9434ZM187.941 87.1133L187.899 86.1141L187.879 86.115L187.858 86.1167L187.941 87.1133ZM184.656 87.085L184.78 86.0927L184.76 86.0901L184.739 86.0884L184.656 87.085ZM183.523 86.8867L183.152 87.8152L183.188 87.8296L183.225 87.8412L183.523 86.8867ZM182.504 85.9521L183.468 85.689L183.46 85.6576L183.449 85.6268L182.504 85.9521ZM172.252 56.1592L173.197 55.8338L172.965 55.1592H172.252V56.1592ZM172.195 56.1592V55.1592H171.195V56.1592H172.195ZM172.025 86.4902L171.225 85.8902L171.2 85.9242L171.177 85.9602L172.025 86.4902ZM170.354 87.085L170.23 86.0927L170.225 86.0934L170.354 87.085ZM165.851 86.8584L165.515 87.8001L165.525 87.8037L165.535 87.8071L165.851 86.8584ZM165.285 86.4902L164.437 87.0202L164.459 87.0563L164.485 87.0902L165.285 86.4902ZM175.055 50.5801L174.82 51.5519L174.834 51.5553L174.848 51.5583L175.055 50.5801ZM176.67 51.2881L176.07 52.0881L176.08 52.0962L176.092 52.1041L176.67 51.2881ZM177.802 52.5908L176.927 53.0739L176.93 53.0805L176.934 53.087L177.802 52.5908ZM178.595 54.5732L177.634 54.848L177.643 54.8817L177.655 54.9146L178.595 54.5732ZM186.525 76.4082L185.585 76.7496L185.824 77.4082H186.525V76.4082ZM186.638 76.4082V77.4082H187.33L187.574 76.7611L186.638 76.4082ZM194.851 54.6299L195.787 54.9827L195.798 54.9544L195.807 54.9256L194.851 54.6299ZM195.644 52.6191L194.769 52.1361L194.762 52.1478L194.756 52.1597L195.644 52.6191ZM196.664 51.2881L196.013 50.5288L196.004 50.5367L195.995 50.5448L196.664 51.2881ZM198.051 50.5801L198.294 51.5502L198.31 51.5462L198.326 51.5416L198.051 50.5801ZM206.208 50.5518L205.862 51.4901L205.87 51.4929L205.877 51.4956L206.208 50.5518ZM207.114 51.1465L206.355 51.7973L206.38 51.8264L206.407 51.8536L207.114 51.1465ZM207.652 52.0811L206.694 52.3684L206.703 52.3979L206.714 52.4268L207.652 52.0811ZM206.85 85.9805C206.85 85.9732 206.852 85.9557 206.859 85.9333C206.867 85.9109 206.876 85.896 206.88 85.8902L208.48 87.0902C208.723 86.7661 208.85 86.3856 208.85 85.9805H206.85ZM206.832 85.9602C206.88 85.8839 206.926 85.8549 206.923 85.8571C206.922 85.8578 206.912 85.8639 206.891 85.8738C206.869 85.8836 206.839 85.896 206.798 85.9097L207.43 87.8071C207.797 87.6848 208.251 87.4634 208.528 87.0202L206.832 85.9602ZM206.778 85.9167C206.611 85.9761 206.333 86.0402 205.914 86.0927L206.162 88.0772C206.648 88.0164 207.088 87.9295 207.45 87.8001L206.778 85.9167ZM205.914 86.0927C205.517 86.1422 204.987 86.1699 204.31 86.1699V88.1699C205.031 88.1699 205.652 88.141 206.162 88.0772L205.914 86.0927ZM204.31 86.1699C203.654 86.1699 203.132 86.1424 202.735 86.0927L202.487 88.0772C202.996 88.1408 203.607 88.1699 204.31 88.1699V86.1699ZM202.735 86.0927C202.315 86.0402 202.038 85.9761 201.871 85.9167L201.199 87.8001C201.561 87.9295 202 88.0164 202.487 88.0772L202.735 86.0927ZM201.871 85.9167C201.795 85.8895 201.755 85.8671 201.74 85.8571C201.725 85.8477 201.743 85.8558 201.768 85.8902L200.168 87.0902C200.444 87.4572 200.834 87.67 201.199 87.8001L201.871 85.9167ZM201.768 85.8902C201.773 85.896 201.782 85.9109 201.79 85.9333C201.797 85.9557 201.799 85.9732 201.799 85.9805H199.799C199.799 86.3856 199.925 86.7661 200.168 87.0902L201.768 85.8902ZM201.799 85.9805V56.1592H199.799V85.9805H201.799ZM200.799 55.1592H200.742V57.1592H200.799V55.1592ZM199.8 55.8234L189.18 85.6164L191.064 86.2879L201.684 56.4949L199.8 55.8234ZM189.166 85.6581C189.135 85.7586 189.093 85.8214 189.046 85.8681L190.461 87.2823C190.754 86.9892 190.957 86.6366 191.078 86.2462L189.166 85.6581ZM189.089 85.8278C189.058 85.8553 188.964 85.9213 188.747 85.9889L189.344 87.8978C189.732 87.7767 190.109 87.5972 190.418 87.3226L189.089 85.8278ZM188.729 85.9947C188.568 86.0484 188.302 86.0974 187.899 86.1141L187.983 88.1124C188.486 88.0914 188.957 88.0271 189.362 87.892L188.729 85.9947ZM187.858 86.1167C187.441 86.1515 186.923 86.1699 186.299 86.1699V88.1699C186.958 88.1699 187.535 88.1506 188.024 88.1098L187.858 86.1167ZM186.299 86.1699C185.683 86.1699 185.179 86.1426 184.78 86.0927L184.532 88.0772C185.039 88.1406 185.63 88.1699 186.299 88.1699V86.1699ZM184.739 86.0884C184.33 86.0543 184.03 85.9976 183.821 85.9322L183.225 87.8412C183.62 87.9647 184.075 88.0401 184.573 88.0815L184.739 86.0884ZM183.895 85.9582C183.684 85.8742 183.567 85.7958 183.508 85.7428L182.179 87.2376C182.459 87.4868 182.796 87.6727 183.152 87.8152L183.895 85.9582ZM183.508 85.7428C183.474 85.7131 183.471 85.6988 183.468 85.689L181.539 86.2153C181.649 86.6208 181.873 86.9653 182.179 87.2376L183.508 85.7428ZM183.449 85.6268L173.197 55.8338L171.306 56.4846L181.558 86.2775L183.449 85.6268ZM172.252 55.1592H172.195V57.1592H172.252V55.1592ZM171.195 56.1592V85.9805H173.195V56.1592H171.195ZM171.195 85.9805C171.195 85.9732 171.196 85.9557 171.204 85.9333C171.211 85.9109 171.221 85.896 171.225 85.8902L172.825 87.0902C173.068 86.7661 173.195 86.3856 173.195 85.9805H171.195ZM171.177 85.9602C171.225 85.8839 171.271 85.8549 171.268 85.8571C171.267 85.8578 171.257 85.8639 171.235 85.8738C171.214 85.8836 171.184 85.896 171.142 85.9097L171.775 87.8071C172.142 87.6848 172.596 87.4634 172.873 87.0202L171.177 85.9602ZM171.142 85.9097C170.945 85.9754 170.648 86.0404 170.23 86.0927L170.478 88.0772C170.966 88.0162 171.406 87.9302 171.775 87.8071L171.142 85.9097ZM170.225 86.0934C169.851 86.1421 169.332 86.1699 168.655 86.1699V88.1699C169.375 88.1699 169.989 88.1411 170.484 88.0766L170.225 86.0934ZM168.655 86.1699C167.999 86.1699 167.477 86.1424 167.08 86.0927L166.832 88.0772C167.341 88.1408 167.952 88.1699 168.655 88.1699V86.1699ZM167.08 86.0927C166.662 86.0404 166.365 85.9754 166.167 85.9097L165.535 87.8071C165.904 87.9302 166.344 88.0162 166.832 88.0772L167.08 86.0927ZM166.188 85.9167C166.112 85.8895 166.072 85.8671 166.056 85.8571C166.042 85.8477 166.059 85.8558 166.085 85.8902L164.485 87.0902C164.76 87.4572 165.15 87.67 165.515 87.8001L166.188 85.9167ZM166.133 85.9602C166.134 85.9623 166.136 85.9656 166.138 85.9698C166.14 85.974 166.141 85.9782 166.142 85.9819C166.143 85.9856 166.144 85.9878 166.144 85.9881C166.144 85.9883 166.143 85.9859 166.143 85.9805H164.143C164.143 86.3449 164.237 86.7006 164.437 87.0202L166.133 85.9602ZM166.143 85.9805V53.3271H164.143V85.9805H166.143ZM166.143 53.3271C166.143 52.5376 166.349 52.0912 166.615 51.8253L165.201 50.4111C164.447 51.1646 164.143 52.191 164.143 53.3271H166.143ZM166.615 51.8253C166.904 51.5362 167.312 51.3535 167.947 51.3535V49.3535C166.883 49.3535 165.931 49.6806 165.201 50.4111L166.615 51.8253ZM167.947 51.3535H172.818V49.3535H167.947V51.3535ZM172.818 51.3535C173.633 51.3535 174.296 51.4249 174.82 51.5519L175.291 49.6082C174.569 49.4332 173.74 49.3535 172.818 49.3535V51.3535ZM174.848 51.5583C175.346 51.6641 175.747 51.8458 176.07 52.0881L177.27 50.4881C176.686 50.0507 176.01 49.7604 175.263 49.6018L174.848 51.5583ZM176.092 52.1041C176.407 52.3275 176.688 52.6416 176.927 53.0739L178.678 52.1077C178.312 51.445 177.838 50.8906 177.248 50.4721L176.092 52.1041ZM176.934 53.087C177.185 53.5262 177.422 54.107 177.634 54.848L179.557 54.2985C179.315 53.4536 179.024 52.7128 178.671 52.0947L176.934 53.087ZM177.655 54.9146L185.585 76.7496L187.465 76.0669L179.535 54.2319L177.655 54.9146ZM186.525 77.4082H186.638V75.4082H186.525V77.4082ZM187.574 76.7611L195.787 54.9827L193.916 54.277L185.703 76.0553L187.574 76.7611ZM195.807 54.9256C196.04 54.171 196.284 53.5592 196.532 53.0786L194.756 52.1597C194.438 52.7742 194.153 53.5028 193.896 54.3342L195.807 54.9256ZM196.52 53.1022C196.78 52.6306 197.055 52.2817 197.333 52.0314L195.995 50.5448C195.518 50.9742 195.113 51.5126 194.769 52.1361L196.52 53.1022ZM197.315 52.0473C197.588 51.813 197.909 51.6464 198.294 51.5502L197.809 49.6099C197.136 49.7781 196.532 50.0835 196.013 50.5288L197.315 52.0473ZM198.326 51.5416C198.745 51.4219 199.263 51.3535 199.892 51.3535V49.3535C199.125 49.3535 198.415 49.4362 197.777 49.6186L198.326 51.5416ZM199.892 51.3535H204.905V49.3535H199.892V51.3535ZM204.905 51.3535C205.334 51.3535 205.644 51.4098 205.862 51.4901L206.553 49.6134C206.054 49.4294 205.496 49.3535 204.905 49.3535V51.3535ZM205.877 51.4956C206.114 51.5784 206.259 51.6856 206.355 51.7973L207.873 50.4957C207.516 50.0787 207.057 49.7895 206.538 49.6079L205.877 51.4956ZM206.407 51.8536C206.52 51.9669 206.622 52.1275 206.694 52.3684L208.61 51.7937C208.456 51.2794 208.199 50.8169 207.821 50.4394L206.407 51.8536ZM206.714 52.4268C206.797 52.6522 206.85 52.9464 206.85 53.3271H208.85C208.85 52.7639 208.772 52.2273 208.59 51.7353L206.714 52.4268ZM206.85 53.3271V85.9805H208.85V53.3271H206.85ZM244.445 79.5518L243.498 79.2305L244.445 79.5518ZM242.944 82.3555L242.159 81.7352L242.155 81.7409L242.15 81.7467L242.944 82.3555ZM240.678 84.4512L240.127 83.6164L240.119 83.6219L240.678 84.4512ZM234.391 86.7451L234.532 87.7352L234.545 87.7331L234.391 86.7451ZM219.07 86.4619L218.397 87.2019L218.414 87.2178L218.433 87.2329L219.07 86.4619ZM219.07 50.9199L219.723 51.6767L219.726 51.6745L219.07 50.9199ZM235.552 50.9199L235.315 51.8914L235.318 51.8921L235.552 50.9199ZM239.489 52.6475L238.898 53.4543L238.906 53.4603L238.914 53.466L239.489 52.6475ZM242.462 62.1914L243.422 62.4723L243.424 62.4661L242.462 62.1914ZM239.857 66.0146L239.249 65.2203L239.244 65.2247L239.238 65.2292L239.857 66.0146ZM237.704 67.2041L237.356 66.2669L233.943 67.5366L237.526 68.188L237.704 67.2041ZM240.565 68.1953L240.087 69.074L240.095 69.0782L240.565 68.1953ZM242.859 70.0361L242.097 70.6838L242.105 70.694L242.114 70.704L242.859 70.0361ZM244.416 72.6416L243.481 72.9947L244.416 72.6416ZM233.994 57.1504L233.336 57.903L233.345 57.9109L233.354 57.9186L233.994 57.1504ZM232.267 56.2441L231.975 57.2005L231.982 57.2027L232.267 56.2441ZM225.753 55.9326V54.9326H224.753V55.9326H225.753ZM225.753 65.4482H224.753V66.4482H225.753V65.4482ZM232.493 65.0801L232.851 66.0141L232.862 66.0096L232.874 66.0048L232.493 65.0801ZM234.079 64.0322L233.357 63.3403L233.357 63.341L234.079 64.0322ZM235.042 62.4746L235.985 62.809L235.988 62.7997L235.042 62.4746ZM236.826 74.001L235.903 74.3856L235.907 74.3949L236.826 74.001ZM225.753 70.8857V69.8857H224.753V70.8857H225.753ZM225.753 81.3076H224.753V82.3076H225.753V81.3076ZM233.74 80.9961L234.025 81.9546L234.033 81.9522L234.041 81.9497L233.74 80.9961ZM235.58 80.0332L236.212 80.8084L236.215 80.8059L235.58 80.0332ZM236.798 78.4473L235.893 78.0214L235.888 78.0335L236.798 78.4473ZM243.983 76.0117C243.983 77.223 243.816 78.2923 243.498 79.2305L245.392 79.8731C245.791 78.6966 245.983 77.4059 245.983 76.0117H243.983ZM243.498 79.2305C243.173 80.1881 242.725 81.0198 242.159 81.7352L243.728 82.9757C244.446 82.0674 244.999 81.03 245.392 79.8731L243.498 79.2305ZM242.15 81.7467C241.598 82.4668 240.926 83.09 240.127 83.6164L241.229 85.2859C242.205 84.6418 243.044 83.8678 243.737 82.9643L242.15 81.7467ZM240.119 83.6219C239.325 84.1573 238.437 84.6022 237.453 84.9538L238.126 86.8372C239.256 86.4336 240.294 85.9156 241.237 85.2804L240.119 83.6219ZM237.453 84.9538C236.46 85.3085 235.388 85.5771 234.237 85.7571L234.545 87.7331C235.81 87.5355 237.004 87.2377 238.126 86.8372L237.453 84.9538ZM234.25 85.7552C233.116 85.9171 231.833 86 230.398 86V88C231.908 88 233.287 87.913 234.532 87.7351L234.25 85.7552ZM230.398 86H220.656V88H230.398V86ZM220.656 86C220.239 86 219.942 85.8857 219.707 85.691L218.433 87.2329C219.066 87.7556 219.826 88 220.656 88V86ZM219.742 85.722C219.619 85.6095 219.447 85.3348 219.447 84.6494H217.447C217.447 85.6255 217.69 86.5592 218.397 87.2019L219.742 85.722ZM219.447 84.6494V52.7041H217.447V84.6494H219.447ZM219.447 52.7041C219.447 52.0135 219.621 51.7654 219.723 51.6767L218.416 50.1631C217.688 50.7919 217.447 51.7332 217.447 52.7041H219.447ZM219.726 51.6745C219.962 51.4688 220.252 51.3535 220.656 51.3535V49.3535C219.813 49.3535 219.045 49.6159 218.413 50.1653L219.726 51.6745ZM220.656 51.3535H229.86V49.3535H220.656V51.3535ZM229.86 51.3535C232.056 51.3535 233.869 51.5387 235.315 51.8914L235.789 49.9484C234.139 49.5459 232.156 49.3535 229.86 49.3535V51.3535ZM235.318 51.8921C236.785 52.2456 237.969 52.7741 238.898 53.4543L240.079 51.8406C238.894 50.9726 237.453 50.3494 235.786 49.9477L235.318 51.8921ZM238.914 53.466C239.853 54.1245 240.561 54.9562 241.052 55.9717L242.853 55.1006C242.211 53.7749 241.277 52.6808 240.063 51.8289L238.914 53.466ZM241.052 55.9717C241.54 56.9799 241.802 58.2033 241.802 59.6709H243.802C243.802 57.9666 243.498 56.4335 242.853 55.1006L241.052 55.9717ZM241.802 59.6709C241.802 60.4724 241.7 61.2196 241.501 61.9167L243.424 62.4661C243.678 61.5773 243.802 60.6442 243.802 59.6709H241.802ZM241.502 61.9105C241.304 62.5893 241.017 63.2024 240.643 63.7551L242.299 64.8757C242.794 64.1446 243.167 63.3417 243.422 62.4723L241.502 61.9105ZM240.643 63.7551C240.272 64.3038 239.809 64.7922 239.249 65.2203L240.464 66.809C241.188 66.2554 241.802 65.6109 242.299 64.8757L240.643 63.7551ZM239.238 65.2292C238.704 65.6501 238.079 65.9977 237.356 66.2669L238.053 68.1413C238.953 67.8063 239.764 67.361 240.476 66.8001L239.238 65.2292ZM237.526 68.188C238.467 68.3591 239.318 68.656 240.087 69.0739L241.042 67.3167C240.074 66.7906 239.019 66.4267 237.883 66.2202L237.526 68.188ZM240.095 69.0782C240.873 69.4918 241.538 70.0261 242.097 70.6838L243.621 69.3885C242.896 68.5358 242.032 67.8429 241.034 67.3124L240.095 69.0782ZM242.114 70.704C242.686 71.341 243.143 72.1005 243.481 72.9947L245.352 72.2885C244.934 71.1814 244.353 70.204 243.603 69.3682L242.114 70.704ZM243.481 72.9947C243.809 73.8655 243.983 74.8667 243.983 76.0117H245.983C245.983 74.6646 245.779 73.419 245.352 72.2885L243.481 72.9947ZM236.354 60.5771C236.354 59.7384 236.225 58.9522 235.947 58.2337L234.081 58.9557C234.256 59.4078 234.354 59.9433 234.354 60.5771H236.354ZM235.947 58.2337C235.663 57.5006 235.227 56.8755 234.635 56.3822L233.354 57.9186C233.669 58.1805 233.912 58.5183 234.081 58.9557L235.947 58.2337ZM234.653 56.3978C234.071 55.8888 233.36 55.5258 232.552 55.2856L231.982 57.2027C232.571 57.3778 233.011 57.619 233.336 57.903L234.653 56.3978ZM232.559 55.2878C231.745 55.0389 230.717 54.9326 229.52 54.9326V56.9326C230.626 56.9326 231.43 57.034 231.975 57.2005L232.559 55.2878ZM229.52 54.9326H225.753V56.9326H229.52V54.9326ZM224.753 55.9326V65.4482H226.753V55.9326H224.753ZM225.753 66.4482H229.916V64.4482H225.753V66.4482ZM229.916 66.4482C231.053 66.4482 232.049 66.3207 232.851 66.0141L232.136 64.146C231.654 64.3303 230.932 64.4482 229.916 64.4482V66.4482ZM232.874 66.0048C233.625 65.6955 234.276 65.273 234.802 64.7234L233.357 63.341C233.052 63.66 232.646 63.936 232.113 64.1554L232.874 66.0048ZM234.801 64.7241C235.333 64.1699 235.729 63.5292 235.985 62.809L234.1 62.1402C233.94 62.5906 233.695 62.9883 233.357 63.3403L234.801 64.7241ZM235.988 62.7997C236.233 62.0873 236.354 61.3447 236.354 60.5771H234.354C234.354 61.1312 234.267 61.6535 234.097 62.1495L235.988 62.7997ZM238.251 76.2666C238.251 75.3058 238.091 74.4128 237.746 73.6071L235.907 74.3949C236.128 74.9107 236.251 75.5282 236.251 76.2666H238.251ZM237.75 73.6164C237.406 72.7924 236.895 72.0918 236.218 71.5314L234.943 73.0722C235.361 73.418 235.68 73.8502 235.903 74.3856L237.75 73.6164ZM236.218 71.5314C235.542 70.9722 234.712 70.5677 233.762 70.2932L233.207 72.2146C233.956 72.431 234.523 72.7251 234.943 73.0722L236.218 71.5314ZM233.762 70.2932C232.788 70.0117 231.58 69.8857 230.171 69.8857V71.8857C231.481 71.8857 232.482 72.0052 233.207 72.2146L233.762 70.2932ZM230.171 69.8857H225.753V71.8857H230.171V69.8857ZM224.753 70.8857V81.3076H226.753V70.8857H224.753ZM225.753 82.3076H231.134V80.3076H225.753V82.3076ZM231.134 82.3076C232.232 82.3076 233.203 82.1987 234.025 81.9546L233.455 80.0376C232.879 80.2088 232.113 80.3076 231.134 80.3076V82.3076ZM234.041 81.9497C234.861 81.6905 235.591 81.3142 236.212 80.8084L234.949 79.258C234.55 79.5829 234.053 79.8486 233.438 80.0425L234.041 81.9497ZM236.215 80.8059C236.862 80.2746 237.362 79.6232 237.709 78.8611L235.888 78.0335C235.668 78.5174 235.356 78.9233 234.946 79.2605L236.215 80.8059ZM237.703 78.8731C238.076 78.08 238.251 77.2044 238.251 76.2666H236.251C236.251 76.9525 236.124 77.5307 235.893 78.0215L237.703 78.8731ZM266.397 73.0947L265.504 72.646L265.397 72.8578V73.0947H266.397ZM266.199 86.4902L265.447 85.8317L265.422 85.8601L265.399 85.8902L266.199 86.4902ZM264.443 87.085L264.329 86.0915L264.324 86.0921L264.443 87.085ZM259.686 86.8584L259.369 87.8071L259.378 87.8101L259.387 87.8129L259.686 86.8584ZM258.921 73.0947H259.921V72.8578L259.815 72.646L258.921 73.0947ZM248.895 53.1289L249.789 52.6802L249.785 52.6721L248.895 53.1289ZM248.187 51.5146L247.215 51.7463L247.221 51.7743L247.23 51.802L248.187 51.5146ZM248.357 50.6367L249.03 51.3767L249.033 51.3739L248.357 50.6367ZM249.575 50.2686L249.64 51.2665L249.656 51.2654L249.671 51.2639L249.575 50.2686ZM254.078 50.2402L254.004 51.2375L254.007 51.2377L254.078 50.2402ZM255.324 50.4668L254.973 51.4031L254.999 51.4129L255.026 51.4213L255.324 50.4668ZM255.976 50.8633L255.186 51.4772L255.206 51.5031L255.228 51.5276L255.976 50.8633ZM256.4 51.5146L257.311 51.1021L257.303 51.0846L257.295 51.0674L256.4 51.5146ZM260.478 60.5205L259.568 60.933L259.569 60.9358L260.478 60.5205ZM261.64 63.2676L260.709 63.6327L260.712 63.6405L260.715 63.6483L261.64 63.2676ZM262.829 66.2979L261.893 66.649L262.136 67.2979H262.829V66.2979ZM262.886 66.2979V67.2979H263.594L263.829 66.6298L262.886 66.2979ZM265.095 60.5771L264.183 60.1673L264.176 60.1812L264.17 60.1954L265.095 60.5771ZM269.116 51.6279L270.028 52.0378L270.053 51.9833L270.071 51.9262L269.116 51.6279ZM269.456 50.9199L268.675 50.2952L268.667 50.306L269.456 50.9199ZM275.715 50.2686L275.618 51.2639L275.635 51.2655L275.652 51.2666L275.715 50.2686ZM276.933 50.6367L276.225 51.3438L276.258 51.3759L276.292 51.4049L276.933 50.6367ZM276.423 53.1289L277.316 53.5776L277.317 53.5761L276.423 53.1289ZM265.397 73.0947V85.9805H267.397V73.0947H265.397ZM265.397 85.9805C265.397 85.9554 265.402 85.9218 265.416 85.8871C265.429 85.8533 265.444 85.8349 265.447 85.8317L266.952 87.1487C267.232 86.8279 267.397 86.4276 267.397 85.9805H265.397ZM265.399 85.8902C265.433 85.8456 265.456 85.8347 265.439 85.8453C265.421 85.8563 265.376 85.8806 265.288 85.9097L265.921 87.8071C266.293 87.6828 266.712 87.4736 266.999 87.0902L265.399 85.8902ZM265.288 85.9097C265.099 85.9728 264.789 86.0384 264.329 86.0916L264.558 88.0784C265.079 88.0182 265.543 87.9328 265.921 87.8071L265.288 85.9097ZM264.324 86.0921C263.906 86.1422 263.355 86.1699 262.659 86.1699V88.1699C263.399 88.1699 264.036 88.141 264.562 88.0778L264.324 86.0921ZM262.659 86.1699C261.944 86.1699 261.383 86.1422 260.966 86.0921L260.728 88.0778C261.254 88.1411 261.902 88.1699 262.659 88.1699V86.1699ZM260.966 86.0921C260.528 86.0395 260.206 85.9734 259.984 85.9039L259.387 87.8129C259.769 87.9322 260.222 88.0171 260.728 88.0778L260.966 86.0921ZM260.002 85.9097C259.914 85.8806 259.869 85.8563 259.851 85.8453C259.834 85.8347 259.857 85.8456 259.891 85.8902L258.291 87.0902C258.578 87.4736 258.997 87.6828 259.369 87.8071L260.002 85.9097ZM259.891 85.8902C259.895 85.896 259.905 85.9109 259.912 85.9333C259.919 85.9557 259.921 85.9732 259.921 85.9805H257.921C257.921 86.3856 258.048 86.7661 258.291 87.0902L259.891 85.8902ZM259.921 85.9805V73.0947H257.921V85.9805H259.921ZM259.815 72.646L249.789 52.6802L248.002 53.5776L258.027 73.5435L259.815 72.646ZM249.785 52.6721C249.433 51.9856 249.231 51.5139 249.145 51.2273L247.23 51.802C247.37 52.2706 247.641 52.8751 248.006 53.5857L249.785 52.6721ZM249.16 51.283C249.135 51.1753 249.148 51.1532 249.141 51.1878C249.137 51.2079 249.128 51.2408 249.107 51.279C249.085 51.3179 249.058 51.3512 249.03 51.3767L247.685 49.8968C247.095 50.433 247.078 51.1734 247.215 51.7463L249.16 51.283ZM249.033 51.3739C249.002 51.4024 249.01 51.3796 249.121 51.3461C249.229 51.3135 249.396 51.2822 249.64 51.2665L249.511 49.2706C248.876 49.3116 248.173 49.4496 247.682 49.8996L249.033 51.3739ZM249.671 51.2639C250.209 51.2118 250.984 51.1836 252.011 51.1836V49.1836C250.96 49.1836 250.111 49.212 249.479 49.2732L249.671 51.2639ZM252.011 51.1836C252.869 51.1836 253.53 51.2024 254.004 51.2375L254.152 49.243C253.607 49.2026 252.889 49.1836 252.011 49.1836V51.1836ZM254.007 51.2377C254.493 51.2724 254.8 51.3382 254.973 51.4031L255.675 49.5305C255.244 49.3689 254.721 49.2836 254.149 49.2428L254.007 51.2377ZM255.026 51.4213C255.117 51.4499 255.169 51.476 255.194 51.4909C255.217 51.5051 255.207 51.5036 255.186 51.4772L256.765 50.2493C256.461 49.8591 256.032 49.6404 255.622 49.5123L255.026 51.4213ZM255.228 51.5276C255.306 51.6157 255.402 51.754 255.506 51.9619L257.295 51.0674C257.134 50.7467 256.947 50.4507 256.723 50.1989L255.228 51.5276ZM255.489 51.9272L259.568 60.933L261.389 60.108L257.311 51.1021L255.489 51.9272ZM259.569 60.9358C259.957 61.7865 260.337 62.6853 260.709 63.6327L262.571 62.9025C262.187 61.9241 261.793 60.9915 261.388 60.1052L259.569 60.9358ZM260.715 63.6483C261.107 64.6006 261.5 65.6008 261.893 66.649L263.765 65.9467C263.365 64.8803 262.965 63.8603 262.564 62.8868L260.715 63.6483ZM262.829 67.2979H262.886V65.2979H262.829V67.2979ZM263.829 66.6298C264.184 65.6209 264.548 64.6407 264.921 63.6893L263.059 62.9591C262.677 63.9335 262.305 64.9358 261.942 65.9659L263.829 66.6298ZM264.921 63.6893C265.297 62.7314 265.663 61.8213 266.019 60.9589L264.17 60.1954C263.809 61.0699 263.439 61.9912 263.059 62.9591L264.921 63.6893ZM266.007 60.987L270.028 52.0378L268.204 51.218L264.183 60.1673L266.007 60.987ZM270.071 51.9262C270.145 51.6896 270.213 51.576 270.245 51.5339L268.667 50.306C268.435 50.6037 268.277 50.9621 268.162 51.3297L270.071 51.9262ZM270.237 51.5446C270.255 51.5217 270.315 51.4609 270.479 51.3953L269.736 49.5383C269.334 49.6993 268.959 49.9406 268.675 50.2952L270.237 51.5446ZM270.479 51.3953C270.628 51.3356 270.901 51.2714 271.345 51.2373L271.192 49.2432C270.654 49.2846 270.153 49.3715 269.736 49.5383L270.479 51.3953ZM271.345 51.2373C271.8 51.2023 272.422 51.1836 273.223 51.1836V49.1836C272.399 49.1836 271.719 49.2026 271.192 49.2432L271.345 51.2373ZM273.223 51.1836C274.288 51.1836 275.081 51.2119 275.618 51.2639L275.811 49.2732C275.178 49.2119 274.309 49.1836 273.223 49.1836V51.1836ZM275.652 51.2666C275.907 51.2825 276.078 51.3143 276.183 51.3461C276.294 51.3796 276.278 51.3967 276.225 51.3438L277.64 49.9296C277.151 49.4413 276.408 49.3099 275.777 49.2705L275.652 51.2666ZM276.292 51.4049C276.266 51.3826 276.235 51.3493 276.209 51.3048C276.183 51.2605 276.169 51.2188 276.163 51.1878C276.152 51.1322 276.17 51.1381 276.141 51.2399L278.064 51.7894C278.235 51.1903 278.224 50.4111 277.573 49.8685L276.292 51.4049ZM276.141 51.2399C276.053 51.5468 275.86 52.0194 275.528 52.6817L277.317 53.5761C277.666 52.879 277.925 52.2755 278.064 51.7894L276.141 51.2399ZM275.529 52.6802L265.504 72.646L267.291 73.5435L277.316 53.5776L275.529 52.6802ZM313.697 86.4053L313.046 85.646L313.032 85.658L313.019 85.6705L313.697 86.4053ZM312.791 86.915L313.058 87.8786L313.075 87.8739L313.092 87.8686L312.791 86.915ZM306.843 86.8584L306.574 87.8214L306.583 87.824L306.843 86.8584ZM305.512 86.1504L304.841 86.8919L304.86 86.9086L304.879 86.9243L305.512 86.1504ZM304.351 84.7344L303.503 85.2644L303.507 85.2705L303.511 85.2765L304.351 84.7344ZM303.077 82.4121L303.971 81.9649L303.965 81.9535L303.96 81.9423L303.077 82.4121ZM293.958 65.2783L293.07 65.7387L293.075 65.7482L293.958 65.2783ZM292.343 61.9932L291.435 62.4113L291.438 62.4168L292.343 61.9932ZM290.871 58.5381L291.802 58.1749L291.554 57.5381H290.871V58.5381ZM290.814 58.5381V57.5381H289.757L289.816 58.5936L290.814 58.5381ZM290.984 62.6162L289.984 62.644L289.984 62.6444L290.984 62.6162ZM290.871 86.4619L290.071 85.8619L290.045 85.8959L290.023 85.9319L290.871 86.4619ZM290.333 86.8584L290.692 87.7917L290.709 87.785L290.727 87.7775L290.333 86.8584ZM284.98 86.8584L284.561 87.7664L284.591 87.78L284.621 87.7917L284.98 86.8584ZM285.093 51.0332L285.742 51.7944L285.744 51.7925L285.093 51.0332ZM292.825 50.5518L292.565 51.5174L292.582 51.5221L292.6 51.5261L292.825 50.5518ZM294.128 51.1465L293.528 51.9465L293.537 51.9535L293.546 51.9602L294.128 51.1465ZM295.232 52.3359L294.4 52.8906L294.405 52.8979L294.41 52.9051L295.232 52.3359ZM296.28 54.1768L295.381 54.6147L295.389 54.631L295.397 54.647L296.28 54.1768ZM303.417 67.5723L304.307 67.1168L304.303 67.1094L304.299 67.1021L303.417 67.5723ZM304.634 69.9795L303.74 70.4267L303.746 70.4396L303.753 70.4523L304.634 69.9795ZM305.824 72.3301L304.921 72.76L304.925 72.7685L305.824 72.3301ZM307.976 76.8896L307.064 77.3L307.33 77.8896H307.976V76.8896ZM308.004 76.8896V77.8896H309.048L309.004 76.8468L308.004 76.8896ZM307.863 72.7549L306.863 72.768L306.863 72.7812L307.863 72.7549ZM309.619 50.3252L309.705 51.3214L309.727 51.3196L309.748 51.3168L309.619 50.3252ZM312.904 50.3252L312.775 51.3168L312.796 51.3196L312.817 51.3214L312.904 50.3252ZM313.895 50.5518L313.448 51.4462L313.462 51.4532L313.476 51.4597L313.895 50.5518ZM313.546 84.3945C313.546 84.7121 313.492 84.9572 313.406 85.1495L315.234 85.9618C315.45 85.4744 315.546 84.9455 315.546 84.3945H313.546ZM313.406 85.1495C313.311 85.363 313.19 85.5227 313.046 85.646L314.348 87.1645C314.732 86.8347 315.027 86.428 315.234 85.9618L313.406 85.1495ZM313.019 85.6705C312.894 85.7853 312.726 85.8869 312.489 85.9615L313.092 87.8686C313.573 87.7167 314.009 87.4783 314.375 87.1401L313.019 85.6705ZM312.523 85.9515C312.272 86.0213 312.013 86.0566 311.743 86.0566V88.0566C312.19 88.0566 312.63 87.9976 313.058 87.8786L312.523 85.9515ZM311.743 86.0566H308.571V88.0566H311.743V86.0566ZM308.571 86.0566C307.973 86.0566 307.489 85.9965 307.103 85.8928L306.583 87.824C307.18 87.9846 307.847 88.0566 308.571 88.0566V86.0566ZM307.113 85.8954C306.786 85.8039 306.464 85.6372 306.146 85.3764L304.879 86.9243C305.391 87.3433 305.957 87.6486 306.574 87.8214L307.113 85.8954ZM306.183 85.4089C305.868 85.1235 305.535 84.7248 305.191 84.1922L303.511 85.2765C303.922 85.9145 304.364 86.4598 304.841 86.8919L306.183 85.4089ZM305.199 84.2044C304.844 83.6365 304.435 82.8927 303.971 81.9649L302.182 82.8593C302.662 83.8196 303.103 84.6239 303.503 85.2644L305.199 84.2044ZM303.96 81.9423L294.84 64.8085L293.075 65.7482L302.194 82.8819L303.96 81.9423ZM294.845 64.818C294.324 63.8119 293.792 62.7292 293.249 61.5695L291.438 62.4168C291.99 63.5983 292.534 64.7056 293.07 65.7386L294.845 64.818ZM293.252 61.575C292.712 60.402 292.229 59.2686 291.802 58.1749L289.939 58.9013C290.381 60.0354 290.88 61.2055 291.435 62.4113L293.252 61.575ZM290.871 57.5381H290.814V59.5381H290.871V57.5381ZM289.816 58.5936C289.891 59.9437 289.947 61.2939 289.984 62.644L291.984 62.5884C291.946 61.2198 291.889 59.8512 291.813 58.4826L289.816 58.5936ZM289.984 62.6444C290.022 63.9749 290.041 65.3531 290.041 66.7793H292.041C292.041 65.3357 292.022 63.9386 291.984 62.5881L289.984 62.6444ZM290.041 66.7793V85.9521H292.041V66.7793H290.041ZM290.041 85.9521C290.041 85.9449 290.042 85.9274 290.049 85.905C290.057 85.8826 290.066 85.8677 290.071 85.8619L291.671 87.0619C291.914 86.7378 292.041 86.3573 292.041 85.9521H290.041ZM290.023 85.9319C290.057 85.8774 290.085 85.8599 290.072 85.8693C290.059 85.8788 290.02 85.9046 289.939 85.9393L290.727 87.7775C291.073 87.6291 291.468 87.3928 291.719 86.9919L290.023 85.9319ZM289.974 85.9251C289.835 85.9784 289.584 86.0412 289.184 86.0934L289.442 88.0766C289.911 88.0155 290.34 87.9272 290.692 87.7917L289.974 85.9251ZM289.184 86.0934C288.809 86.1422 288.299 86.1699 287.642 86.1699V88.1699C288.344 88.1699 288.949 88.141 289.442 88.0766L289.184 86.0934ZM287.642 86.1699C287.005 86.1699 286.505 86.1424 286.129 86.0934L285.87 88.0766C286.363 88.1408 286.958 88.1699 287.642 88.1699V86.1699ZM286.129 86.0934C285.729 86.0412 285.478 85.9784 285.339 85.9251L284.621 87.7917C284.973 87.9272 285.402 88.0155 285.87 88.0766L286.129 86.0934ZM285.399 85.9504C285.329 85.918 285.294 85.8941 285.282 85.885C285.271 85.8763 285.292 85.8896 285.318 85.9319L283.622 86.9919C283.86 87.3728 284.224 87.6109 284.561 87.7664L285.399 85.9504ZM285.318 85.9319C285.32 85.934 285.321 85.9372 285.323 85.9415C285.325 85.9457 285.327 85.9498 285.328 85.9535C285.329 85.9572 285.329 85.9595 285.329 85.9598C285.329 85.96 285.329 85.9576 285.329 85.9521H283.329C283.329 86.3166 283.423 86.6723 283.622 86.9919L285.318 85.9319ZM285.329 85.9521V53.0156H283.329V85.9521H285.329ZM285.329 53.0156C285.329 52.32 285.522 51.9816 285.742 51.7944L284.445 50.272C283.645 50.9533 283.329 51.9365 283.329 53.0156H285.329ZM285.744 51.7925C286.076 51.5083 286.481 51.3535 287.019 51.3535V49.3535C286.047 49.3535 285.168 49.6519 284.443 50.2739L285.744 51.7925ZM287.019 51.3535H291.012V49.3535H287.019V51.3535ZM291.012 51.3535C291.675 51.3535 292.186 51.4152 292.565 51.5174L293.085 49.5861C292.482 49.4239 291.785 49.3535 291.012 49.3535V51.3535ZM292.6 51.5261C292.964 51.6102 293.269 51.7525 293.528 51.9465L294.728 50.3465C294.231 49.9741 293.667 49.7198 293.05 49.5774L292.6 51.5261ZM293.546 51.9602C293.822 52.1575 294.111 52.4568 294.4 52.8906L296.064 51.7812C295.674 51.1956 295.226 50.7019 294.709 50.3328L293.546 51.9602ZM294.41 52.9051C294.712 53.3422 295.037 53.9085 295.381 54.6147L297.179 53.7388C296.805 52.9723 296.431 52.3115 296.054 51.7667L294.41 52.9051ZM295.397 54.647L302.534 68.0425L304.299 67.1021L297.162 53.7066L295.397 54.647ZM302.526 68.0277C302.94 68.8369 303.345 69.6366 303.74 70.4267L305.529 69.5323C305.131 68.7365 304.724 67.9313 304.307 67.1168L302.526 68.0277ZM303.753 70.4523C304.161 71.2123 304.55 71.9815 304.921 72.76L306.727 71.9001C306.342 71.0927 305.938 70.2949 305.516 69.5067L303.753 70.4523ZM304.925 72.7685C305.301 73.5396 305.668 74.3011 306.025 75.0531L307.832 74.195C307.471 73.4365 307.102 72.6688 306.723 71.8917L304.925 72.7685ZM306.025 75.0531C306.381 75.8021 306.727 76.5511 307.064 77.3L308.888 76.4793C308.545 75.7178 308.193 74.9563 307.832 74.195L306.025 75.0531ZM307.976 77.8896H308.004V75.8896H307.976V77.8896ZM309.004 76.8468C308.947 75.5312 308.9 74.1584 308.863 72.7286L306.863 72.7812C306.901 74.2211 306.949 75.6049 307.005 76.9325L309.004 76.8468ZM308.863 72.7417C308.844 71.3108 308.835 69.9464 308.835 68.6484H306.835C306.835 69.956 306.844 71.3292 306.863 72.768L308.863 72.7417ZM308.835 68.6484V51.458H306.835V68.6484H308.835ZM308.835 51.458C308.835 51.4652 308.833 51.4828 308.826 51.5052C308.818 51.5276 308.809 51.5425 308.804 51.5482L307.204 50.3482C306.961 50.6724 306.835 51.0528 306.835 51.458H308.835ZM308.804 51.5482C308.785 51.5736 308.778 51.5734 308.805 51.5551C308.831 51.5366 308.881 51.5068 308.965 51.4709L308.177 49.6326C307.829 49.7817 307.464 50.0023 307.204 50.3482L308.804 51.5482ZM308.965 51.4709C309.095 51.4152 309.328 51.3542 309.705 51.3214L309.532 49.329C309.041 49.3717 308.576 49.4618 308.177 49.6326L308.965 51.4709ZM309.748 51.3168C310.123 51.2679 310.632 51.2402 311.29 51.2402V49.2402C310.588 49.2402 309.983 49.2692 309.489 49.3336L309.748 51.3168ZM311.29 51.2402C311.906 51.2402 312.398 51.2677 312.775 51.3168L313.033 49.3336C312.541 49.2694 311.957 49.2402 311.29 49.2402V51.2402ZM312.817 51.3214C313.203 51.355 313.387 51.4158 313.448 51.4462L314.342 49.6573C313.95 49.4611 313.473 49.3709 312.991 49.329L312.817 51.3214ZM313.476 51.4597C313.546 51.4921 313.581 51.5161 313.593 51.5252C313.604 51.5338 313.583 51.5206 313.557 51.4782L315.253 50.4182C315.015 50.0373 314.651 49.7993 314.314 49.6438L313.476 51.4597ZM313.557 51.4782C313.556 51.4762 313.554 51.4729 313.552 51.4687C313.55 51.4645 313.549 51.4603 313.548 51.4566C313.547 51.4529 313.546 51.4507 313.546 51.4504C313.546 51.4502 313.546 51.4525 313.546 51.458H315.546C315.546 51.0935 315.453 50.7379 315.253 50.4182L313.557 51.4782ZM313.546 51.458V84.3945H315.546V51.458H313.546Z" fill="#505050"/>
</svg>
