<svg width="60" height="26" viewBox="0 0 60 26" fill="none" xmlns="http://www.w3.org/2000/svg">
<path d="M15.7379 1.6649C17.5216 1.6649 19.688 2.35474 22.0312 3.52496C24.3483 4.68216 26.7059 6.24132 28.8362 7.8263C30.9617 9.40764 32.8314 10.9925 34.171 12.1837C34.546 12.5171 34.8788 12.8191 35.1634 13.0808C34.8788 13.3425 34.546 13.6445 34.171 13.9779C32.8314 15.1691 30.9617 16.754 28.8362 18.3353C26.7059 19.9203 24.3483 21.4794 22.0312 22.6366C19.688 23.8069 17.5216 24.4967 15.7379 24.4967C7.80694 24.4967 1.84375 19.1498 1.84375 13.0808C1.84375 7.01185 7.80694 1.6649 15.7379 1.6649Z" stroke="#505050" stroke-width="3"/>
<path d="M43.6161 24.4967C41.8324 24.4967 39.666 23.8069 37.3228 22.6367C35.0057 21.4795 32.6481 19.9203 30.5178 18.3353C28.3923 16.754 26.5226 15.1691 25.183 13.978C24.808 13.6445 24.4752 13.3426 24.1906 13.0808C24.4752 12.8191 24.808 12.5171 25.183 12.1837C26.5226 10.9925 28.3923 9.40766 30.5178 7.82632C32.6481 6.24134 35.0057 4.68218 37.3228 3.52498C39.666 2.35476 41.8324 1.66492 43.6161 1.66492C51.5471 1.66492 57.5103 7.01187 57.5103 13.0808C57.5103 19.1498 51.5471 24.4967 43.6161 24.4967Z" stroke="#505050" stroke-width="3"/>
</svg>
