<svg width="91" height="84" viewBox="0 0 91 84" fill="none" xmlns="http://www.w3.org/2000/svg">
<path d="M88.7564 41.6642C88.7564 63.7357 69.3384 81.8284 45.1282 81.8284C20.918 81.8284 1.5 63.7357 1.5 41.6642C1.5 19.5927 20.918 1.5 45.1282 1.5C69.3384 1.5 88.7564 19.5927 88.7564 41.6642Z" stroke="#505050" stroke-width="3"/>
<mask id="path-2-inside-1_613_17" fill="white">
<path fill-rule="evenodd" clip-rule="evenodd" d="M43.8871 25.8318C47.4683 25.8318 50.6305 27.4883 52.5238 30.0166C53.4824 29.734 54.504 29.5814 55.5642 29.5814C61.0786 29.5814 65.5488 33.7085 65.5488 38.7996C65.5488 39.0655 65.5366 39.3287 65.5127 39.5888C65.6369 39.5836 65.7617 39.581 65.8872 39.581C70.3735 39.581 74.0103 42.9386 74.0103 47.0805C74.0103 50.905 70.9095 54.0609 66.9024 54.5221V54.58H65.9177C65.9075 54.5801 65.8974 54.5801 65.8872 54.5801C65.8771 54.5801 65.867 54.5801 65.8568 54.58H25.3019L25.2715 54.5801L25.2411 54.58H24.5947V54.5544C20.4251 54.2369 17.1484 51.012 17.1484 47.0805C17.1484 42.9387 20.7852 39.581 25.2715 39.581V39.5808C25.2715 35.4389 28.9083 32.0812 33.3946 32.0812C33.6201 32.0812 33.8434 32.0897 34.0643 32.1063C35.5592 28.4401 39.3932 25.8318 43.8871 25.8318Z"/>
</mask>
<path d="M52.5238 30.0166L50.1224 31.8148L51.3722 33.4838L53.3721 32.8941L52.5238 30.0166ZM65.5127 39.5888L62.5253 39.3144L62.2116 42.7297L65.6383 42.5862L65.5127 39.5888ZM66.9024 54.5221L66.5594 51.5418L63.9024 51.8476V54.5221H66.9024ZM66.9024 54.58V57.58H69.9024V54.58H66.9024ZM65.9177 54.58L65.9177 51.58L65.9075 51.5801L65.9177 54.58ZM65.8568 54.58L65.867 51.58H65.8568V54.58ZM25.3019 54.58L25.3019 51.58L25.2969 51.58L25.3019 54.58ZM25.2715 54.5801L25.2664 57.5801L25.2766 57.5801L25.2715 54.5801ZM25.2411 54.58L25.2462 51.58H25.2411V54.58ZM24.5947 54.58H21.5947V57.58H24.5947V54.58ZM24.5947 54.5544H27.5947V51.7742L24.8225 51.5631L24.5947 54.5544ZM25.2715 39.581L25.2715 42.581L28.2715 42.581V39.581H25.2715ZM34.0643 32.1063L33.8389 35.0979L36.0173 35.262L36.8422 33.2391L34.0643 32.1063ZM54.9251 28.2184C52.4539 24.9182 48.394 22.8318 43.8871 22.8318V28.8318C46.5427 28.8318 48.8072 30.0583 50.1224 31.8148L54.9251 28.2184ZM55.5642 26.5814C54.2154 26.5814 52.9082 26.7756 51.6754 27.1391L53.3721 32.8941C54.0567 32.6923 54.7926 32.5814 55.5642 32.5814V26.5814ZM68.5488 38.7996C68.5488 31.8306 62.5053 26.5814 55.5642 26.5814V32.5814C59.6518 32.5814 62.5488 35.5865 62.5488 38.7996H68.5488ZM68.5002 39.8632C68.5324 39.512 68.5488 39.1572 68.5488 38.7996H62.5488C62.5488 38.9737 62.5408 39.1454 62.5253 39.3144L68.5002 39.8632ZM65.6383 42.5862C65.7206 42.5827 65.8036 42.581 65.8872 42.581V36.581C65.7198 36.581 65.5531 36.5845 65.3872 36.5914L65.6383 42.5862ZM65.8872 42.581C68.9467 42.581 71.0103 44.8166 71.0103 47.0805H77.0103C77.0103 41.0607 71.8003 36.581 65.8872 36.581V42.581ZM71.0103 47.0805C71.0103 49.1785 69.2623 51.2306 66.5594 51.5418L67.2455 57.5024C72.5567 56.8911 77.0103 52.6316 77.0103 47.0805H71.0103ZM69.9024 54.58V54.5221H63.9024V54.58H69.9024ZM65.9177 57.58H66.9024V51.58H65.9177V57.58ZM65.9075 51.5801C65.9008 51.5801 65.894 51.5801 65.8872 51.5801V57.5801C65.9008 57.5801 65.9143 57.5801 65.9278 57.58L65.9075 51.5801ZM65.8872 51.5801C65.8805 51.5801 65.8737 51.5801 65.867 51.5801L65.8467 57.58C65.8602 57.5801 65.8737 57.5801 65.8872 57.5801V51.5801ZM25.3019 57.58H65.8568V51.58H25.3019V57.58ZM25.2766 57.5801L25.307 57.58L25.2969 51.58L25.2664 51.5801L25.2766 57.5801ZM25.236 57.58L25.2664 57.5801L25.2766 51.5801L25.2462 51.58L25.236 57.58ZM24.5947 57.58H25.2411V51.58H24.5947V57.58ZM21.5947 54.5544V54.58H27.5947V54.5544H21.5947ZM14.1484 47.0805C14.1484 52.7893 18.8506 57.1257 24.3669 57.5458L24.8225 51.5631C21.9997 51.3481 20.1484 49.2347 20.1484 47.0805H14.1484ZM25.2715 36.581C19.3585 36.581 14.1484 41.0607 14.1484 47.0805H20.1484C20.1484 44.8166 22.212 42.581 25.2715 42.581L25.2715 36.581ZM22.2715 39.5808V39.581H28.2715V39.5808H22.2715ZM33.3946 29.0812C27.4815 29.0812 22.2715 33.5609 22.2715 39.5808H28.2715C28.2715 37.3168 30.3351 35.0812 33.3946 35.0812V29.0812ZM34.2897 29.1148C33.9939 29.0925 33.6953 29.0812 33.3946 29.0812V35.0812C33.5448 35.0812 33.693 35.0869 33.8389 35.0979L34.2897 29.1148ZM43.8871 22.8318C38.2475 22.8318 33.2689 26.1114 31.2863 30.9736L36.8422 33.2391C37.8495 30.7687 40.5389 28.8318 43.8871 28.8318V22.8318Z" fill="#505050" mask="url(#path-2-inside-1_613_17)"/>
</svg>
