<svg width="58" height="30" viewBox="0 0 58 30" fill="none" xmlns="http://www.w3.org/2000/svg">
<mask id="path-1-inside-1_613_19" fill="white">
<path fill-rule="evenodd" clip-rule="evenodd" d="M26.8871 0.831761C30.4683 0.831761 33.6305 2.48825 35.5238 5.0166C36.4824 4.73397 37.504 4.58141 38.5642 4.58141C44.0786 4.58141 48.5488 8.70854 48.5488 13.7996C48.5488 14.0655 48.5366 14.3287 48.5127 14.5888C48.6369 14.5836 48.7617 14.581 48.8872 14.581C53.3735 14.581 57.0103 17.9386 57.0103 22.0805C57.0103 25.905 53.9095 29.0609 49.9024 29.5221V29.58H48.9177C48.9075 29.5801 48.8974 29.5801 48.8872 29.5801C48.8771 29.5801 48.867 29.5801 48.8568 29.58H8.30194L8.27151 29.5801L8.24109 29.58H7.59473V29.5544C3.42513 29.2369 0.148438 26.012 0.148438 22.0805C0.148438 17.9387 3.78525 14.581 8.27148 14.581V14.5808C8.27148 10.4389 11.9083 7.08122 16.3946 7.08122C16.6201 7.08122 16.8434 7.0897 17.0643 7.10634C18.5592 3.44006 22.3932 0.831761 26.8871 0.831761Z"/>
</mask>
<path d="M35.5238 5.0166L33.1224 6.81477L34.3722 8.48378L36.3721 7.89415L35.5238 5.0166ZM48.5127 14.5888L45.5253 14.3144L45.2116 17.7297L48.6383 17.5862L48.5127 14.5888ZM49.9024 29.5221L49.5594 26.5418L46.9024 26.8476V29.5221H49.9024ZM49.9024 29.58V32.58H52.9024V29.58H49.9024ZM48.9177 29.58V26.58L48.9075 26.5801L48.9177 29.58ZM48.8568 29.58L48.867 26.58H48.8568V29.58ZM8.30194 29.58V26.58L8.29686 26.58L8.30194 29.58ZM8.27151 29.5801L8.26644 32.5801L8.27659 32.5801L8.27151 29.5801ZM8.24109 29.58L8.24617 26.58H8.24109V29.58ZM7.59473 29.58H4.59473V32.58H7.59473V29.58ZM7.59473 29.5544H10.5947V26.7742L7.82252 26.5631L7.59473 29.5544ZM8.27148 14.581L8.27149 17.581L11.2715 17.581V14.581H8.27148ZM17.0643 7.10634L16.8389 10.0979L19.0173 10.262L19.8422 8.23906L17.0643 7.10634ZM37.9251 3.21842C35.4539 -0.0818431 31.394 -2.16824 26.8871 -2.16824V3.83176C29.5427 3.83176 31.8072 5.05835 33.1224 6.81477L37.9251 3.21842ZM38.5642 1.58141C37.2154 1.58141 35.9082 1.7756 34.6754 2.13905L36.3721 7.89415C37.0567 7.69234 37.7926 7.58141 38.5642 7.58141V1.58141ZM51.5488 13.7996C51.5488 6.8306 45.5053 1.58141 38.5642 1.58141V7.58141C42.6518 7.58141 45.5488 10.5865 45.5488 13.7996H51.5488ZM51.5002 14.8632C51.5324 14.512 51.5488 14.1572 51.5488 13.7996H45.5488C45.5488 13.9737 45.5408 14.1454 45.5253 14.3144L51.5002 14.8632ZM48.6383 17.5862C48.7206 17.5827 48.8036 17.581 48.8872 17.581V11.581C48.7198 11.581 48.5531 11.5845 48.3872 11.5914L48.6383 17.5862ZM48.8872 17.581C51.9467 17.581 54.0103 19.8166 54.0103 22.0805H60.0103C60.0103 16.0607 54.8003 11.581 48.8872 11.581V17.581ZM54.0103 22.0805C54.0103 24.1785 52.2623 26.2306 49.5594 26.5418L50.2455 32.5024C55.5567 31.8911 60.0103 27.6316 60.0103 22.0805H54.0103ZM52.9024 29.58V29.5221H46.9024V29.58H52.9024ZM48.9177 32.58H49.9024V26.58H48.9177V32.58ZM48.9075 26.5801C48.9008 26.5801 48.894 26.5801 48.8872 26.5801V32.5801C48.9008 32.5801 48.9143 32.5801 48.9278 32.58L48.9075 26.5801ZM48.8872 26.5801C48.8805 26.5801 48.8737 26.5801 48.867 26.5801L48.8467 32.58C48.8602 32.5801 48.8737 32.5801 48.8872 32.5801V26.5801ZM8.30194 32.58H48.8568V26.58H8.30194V32.58ZM8.27659 32.5801L8.30702 32.58L8.29686 26.58L8.26644 26.5801L8.27659 32.5801ZM8.23601 32.58L8.26644 32.5801L8.27659 26.5801L8.24617 26.58L8.23601 32.58ZM7.59473 32.58H8.24109V26.58H7.59473V32.58ZM4.59473 29.5544V29.58H10.5947V29.5544H4.59473ZM-2.85156 22.0805C-2.85156 27.7893 1.8506 32.1257 7.36693 32.5458L7.82252 26.5631C4.99967 26.3481 3.14844 24.2347 3.14844 22.0805H-2.85156ZM8.27147 11.581C2.35848 11.581 -2.85156 16.0607 -2.85156 22.0805H3.14844C3.14844 19.8166 5.21202 17.581 8.27149 17.581L8.27147 11.581ZM5.27148 14.5808V14.581H11.2715V14.5808H5.27148ZM16.3946 4.08122C10.4815 4.08122 5.27148 8.56094 5.27148 14.5808H11.2715C11.2715 12.3168 13.3351 10.0812 16.3946 10.0812V4.08122ZM17.2897 4.11482C16.9939 4.09254 16.6953 4.08122 16.3946 4.08122V10.0812C16.5448 10.0812 16.693 10.0869 16.8389 10.0979L17.2897 4.11482ZM26.8871 -2.16824C21.2475 -2.16824 16.2689 1.11142 14.2863 5.97363L19.8422 8.23906C20.8495 5.7687 23.5389 3.83176 26.8871 3.83176V-2.16824Z" fill="#505050" mask="url(#path-1-inside-1_613_19)"/>
</svg>
