<svg width="91" height="91" viewBox="0 0 91 91" fill="none" xmlns="http://www.w3.org/2000/svg">
<circle cx="45.6565" cy="45.641" r="43.6282" fill="#505050" stroke="#505050" stroke-width="3"/>
<path d="M31.2662 33.6025C33.0218 33.6025 35.1718 34.3397 37.516 35.6078C39.8305 36.8598 42.1874 38.5479 44.3187 40.2654C46.4447 41.9786 48.3151 43.6959 49.6555 44.9868C50.0909 45.4061 50.4695 45.7796 50.7818 46.0923C50.4695 46.405 50.0909 46.7784 49.6555 47.1978C48.3151 48.4887 46.4447 50.206 44.3187 51.9192C42.1874 53.6367 39.8305 55.3248 37.516 56.5768C35.1718 57.8448 33.0218 58.582 31.2662 58.582C23.4544 58.582 17.3721 52.8584 17.3721 46.0923C17.3721 39.3262 23.4544 33.6025 31.2662 33.6025Z" stroke="#D0E4D0" stroke-width="3"/>
<path d="M59.1444 58.582C57.3888 58.582 55.2388 57.8448 52.8946 56.5768C50.5801 55.3248 48.2232 53.6367 46.0919 51.9192C43.9659 50.2059 42.0955 48.4887 40.7551 47.1978C40.3197 46.7784 39.9411 46.405 39.6289 46.0923C39.9411 45.7796 40.3197 45.4061 40.7551 44.9868C42.0955 43.6959 43.9659 41.9786 46.0919 40.2654C48.2232 38.5478 50.5801 36.8598 52.8946 35.6078C55.2388 34.3397 57.3888 33.6025 59.1444 33.6025C66.9562 33.6025 73.0386 39.3262 73.0386 46.0923C73.0386 52.8584 66.9562 58.582 59.1444 58.582Z" stroke="#D0E4D0" stroke-width="3"/>
</svg>
