<svg width="91" height="84" viewBox="0 0 91 84" fill="none" xmlns="http://www.w3.org/2000/svg">
<path d="M88.7564 41.6642C88.7564 63.7357 69.3384 81.8284 45.1282 81.8284C20.918 81.8284 1.5 63.7357 1.5 41.6642C1.5 19.5927 20.918 1.5 45.1282 1.5C69.3384 1.5 88.7564 19.5927 88.7564 41.6642Z" stroke="#505050" stroke-width="3"/>
<path d="M30.7379 30.665C32.5216 30.665 34.688 31.3549 37.0312 32.5251C39.3483 33.6823 41.7059 35.2414 43.8362 36.8264C45.9617 38.4078 47.8314 39.9926 49.171 41.1838C49.546 41.5172 49.8788 41.8192 50.1634 42.0809C49.8788 42.3427 49.546 42.6446 49.171 42.9781C47.8314 44.1692 45.9617 45.7541 43.8362 47.3354C41.7059 48.9204 39.3483 50.4796 37.0312 51.6368C34.688 52.807 32.5216 53.4968 30.7379 53.4968C22.8069 53.4968 16.8437 48.1499 16.8437 42.0809C16.8437 36.012 22.8069 30.665 30.7379 30.665Z" stroke="#505050" stroke-width="3"/>
<path d="M58.6161 53.4968C56.8324 53.4968 54.666 52.807 52.3228 51.6368C50.0057 50.4796 47.6481 48.9204 45.5178 47.3354C43.3923 45.7541 41.5226 44.1692 40.183 42.9781C39.808 42.6447 39.4752 42.3427 39.1906 42.0809C39.4752 41.8192 39.808 41.5172 40.183 41.1838C41.5226 39.9927 43.3923 38.4078 45.5178 36.8264C47.6481 35.2415 50.0057 33.6823 52.3228 32.5251C54.666 31.3549 56.8324 30.665 58.6161 30.665C66.5471 30.665 72.5103 36.012 72.5103 42.0809C72.5103 48.1499 66.5471 53.4968 58.6161 53.4968Z" stroke="#505050" stroke-width="3"/>
</svg>
