<svg width="53" height="55" viewBox="0 0 53 55" fill="none" xmlns="http://www.w3.org/2000/svg">
<ellipse cx="26.0359" cy="27.0411" rx="26.0359" ry="27.0411" fill="#505050"/>
<path d="M36.6328 25.9619C36.6328 26.4176 36.6084 26.8001 36.5596 27.1094C36.5107 27.4186 36.4375 27.6709 36.3398 27.8662C36.2422 28.0452 36.1283 28.1755 35.998 28.2568C35.8678 28.3382 35.7295 28.3789 35.583 28.3789H27.9902V36.6553C27.9902 36.818 27.9495 36.9645 27.8682 37.0947C27.7868 37.2087 27.6484 37.3145 27.4531 37.4121C27.2578 37.4935 26.9974 37.5586 26.6719 37.6074C26.3464 37.6562 25.9395 37.6807 25.4512 37.6807C24.9629 37.6807 24.556 37.6562 24.2305 37.6074C23.9049 37.5586 23.6445 37.4935 23.4492 37.4121C23.2539 37.3145 23.1074 37.2087 23.0098 37.0947C22.9284 36.9645 22.8877 36.818 22.8877 36.6553V28.3789H15.3193C15.1729 28.3789 15.0345 28.3382 14.9043 28.2568C14.7904 28.1755 14.6846 28.0452 14.5869 27.8662C14.4893 27.6709 14.4079 27.4186 14.3428 27.1094C14.2939 26.8001 14.2695 26.4176 14.2695 25.9619C14.2695 25.5225 14.2939 25.1481 14.3428 24.8389C14.3916 24.5133 14.4567 24.2611 14.5381 24.082C14.6357 23.8867 14.7415 23.7484 14.8555 23.667C14.9694 23.5856 15.0996 23.5449 15.2461 23.5449H22.8877V15.293C22.8877 15.1302 22.9284 14.9837 23.0098 14.8535C23.1074 14.707 23.2539 14.5931 23.4492 14.5117C23.6445 14.4141 23.9049 14.3408 24.2305 14.292C24.556 14.2432 24.9629 14.2188 25.4512 14.2188C25.9395 14.2188 26.3464 14.2432 26.6719 14.292C26.9974 14.3408 27.2578 14.4141 27.4531 14.5117C27.6484 14.5931 27.7868 14.707 27.8682 14.8535C27.9495 14.9837 27.9902 15.1302 27.9902 15.293V23.5449H35.6562C35.7865 23.5449 35.9085 23.5856 36.0225 23.667C36.1527 23.7484 36.2585 23.8867 36.3398 24.082C36.4375 24.2611 36.5107 24.5133 36.5596 24.8389C36.6084 25.1481 36.6328 25.5225 36.6328 25.9619Z" fill="white"/>
</svg>
