<svg width="182" height="76" viewBox="0 0 182 76" fill="none" xmlns="http://www.w3.org/2000/svg">
<path fill-rule="evenodd" clip-rule="evenodd" d="M1.39481 13.3042C9.1993 12.462 15.2473 13.432 20.1759 15.4136C25.1315 17.4059 29.3162 20.5666 33.1809 24.6105C37.0914 28.7023 40.5455 33.5554 44.1305 38.8718C44.7694 39.8192 45.4155 40.7864 46.07 41.766L46.07 41.7661C48.9884 46.1344 52.0716 50.7493 55.4099 54.9603C63.7912 65.5327 74.7241 74.7809 92.2732 75.2307C106.404 75.5929 123.979 70.1975 147.08 57.0132L157.511 74.3739L181.81 27.4426L128.965 26.8648L140.382 45.8661C118.414 58.3673 103.354 62.5104 92.6064 62.235C80.4555 61.9235 72.75 55.9072 65.5971 46.8844C62.6194 43.1283 59.8995 39.0596 56.9982 34.7198L56.9965 34.7172C56.3126 33.6942 55.6187 32.6562 54.9089 31.6036C51.2843 26.2286 47.3102 20.5791 42.5792 15.6287C37.8025 10.6305 32.1325 6.20936 25.0253 3.35192C17.8913 0.483683 9.66872 -0.664168 0 0.37924L1.39481 13.3042Z" fill="#505050"/>
</svg>
