<svg width="213" height="88" viewBox="0 0 213 88" fill="none" xmlns="http://www.w3.org/2000/svg">
<path fill-rule="evenodd" clip-rule="evenodd" d="M87.9986 43.6426C87.8067 21.5423 69.8316 3.68582 47.686 3.68582C25.4211 3.68582 7.37185 21.7351 7.37185 44C7.37185 66.2648 25.4211 84.3141 47.686 84.3141C69.8319 84.3141 87.8071 66.4572 87.9986 44.3565C87.807 68.4929 68.1816 88 44 88C19.6995 88 0 68.3005 0 44C0 19.6995 19.6995 0 44 0C68.1813 0 87.8065 19.5066 87.9986 43.6426Z" fill="#4A90C5"/>
<path d="M65.6969 50.9805C65.6969 51.3223 65.6832 51.6162 65.6559 51.8623C65.6422 52.0947 65.6148 52.2998 65.5738 52.4775C65.5328 52.6416 65.4781 52.7852 65.4098 52.9082C65.3414 53.0312 65.232 53.1748 65.0816 53.3389C64.9313 53.4893 64.6373 53.6875 64.1998 53.9336C63.776 54.1797 63.2496 54.4189 62.6207 54.6514C62.0055 54.8701 61.2945 55.0547 60.4879 55.2051C59.6949 55.3555 58.8336 55.4307 57.9039 55.4307C56.0855 55.4307 54.4449 55.1504 52.982 54.5898C51.5191 54.0293 50.275 53.1953 49.2496 52.0879C48.2242 50.9668 47.4381 49.5723 46.8912 47.9043C46.3443 46.2363 46.0709 44.2949 46.0709 42.0801C46.0709 39.8242 46.3717 37.8213 46.9732 36.0713C47.5748 34.3213 48.4156 32.8516 49.4957 31.6621C50.5758 30.4727 51.8678 29.5703 53.3717 28.9551C54.8893 28.3398 56.5572 28.0322 58.3756 28.0322C59.1139 28.0322 59.8248 28.0938 60.5084 28.2168C61.192 28.3398 61.8209 28.5039 62.3951 28.709C62.983 28.9004 63.5094 29.126 63.9742 29.3857C64.4391 29.6455 64.7604 29.8711 64.9381 30.0625C65.1295 30.2402 65.2594 30.3906 65.3277 30.5137C65.3961 30.6367 65.4508 30.7939 65.4918 30.9854C65.5328 31.1768 65.5602 31.4023 65.5738 31.6621C65.6012 31.9219 65.6148 32.2432 65.6148 32.626C65.6148 33.0361 65.6012 33.3848 65.5738 33.6719C65.5465 33.959 65.4986 34.1914 65.4303 34.3691C65.3619 34.5469 65.2799 34.6768 65.1842 34.7588C65.0885 34.8408 64.9791 34.8818 64.8561 34.8818C64.651 34.8818 64.3912 34.7656 64.0768 34.5332C63.7623 34.2871 63.3521 34.0205 62.8463 33.7334C62.3541 33.4326 61.7594 33.166 61.0621 32.9336C60.3785 32.6875 59.5582 32.5645 58.6012 32.5645C57.5484 32.5645 56.6051 32.7832 55.7711 33.2207C54.9508 33.6445 54.2467 34.2598 53.6588 35.0664C53.0846 35.8594 52.6471 36.8232 52.3463 37.958C52.0455 39.0928 51.8951 40.3711 51.8951 41.793C51.8951 43.3516 52.0523 44.7051 52.3668 45.8535C52.6949 46.9883 53.1529 47.9248 53.7408 48.6631C54.3424 49.4014 55.0602 49.9551 55.8941 50.3242C56.7418 50.6797 57.692 50.8574 58.7447 50.8574C59.7018 50.8574 60.5289 50.748 61.2262 50.5293C61.9234 50.2969 62.5182 50.0439 63.0104 49.7705C63.5162 49.4971 63.9264 49.251 64.2408 49.0322C64.5689 48.8135 64.8219 48.7041 64.9996 48.7041C65.1363 48.7041 65.2457 48.7314 65.3277 48.7861C65.4098 48.8408 65.4781 48.9502 65.5328 49.1143C65.5875 49.2783 65.6285 49.5107 65.6559 49.8115C65.6832 50.0986 65.6969 50.4883 65.6969 50.9805ZM95.0058 41.4238C95.0058 43.625 94.7324 45.5938 94.1855 47.3301C93.6386 49.0664 92.8252 50.543 91.7451 51.7598C90.665 52.9629 89.3252 53.8857 87.7255 54.5283C86.1396 55.1572 84.3007 55.4717 82.2089 55.4717C80.1445 55.4717 78.3398 55.2051 76.7949 54.6719C75.2636 54.125 73.9853 53.2979 72.9599 52.1904C71.9345 51.083 71.1621 49.6748 70.6425 47.9658C70.1367 46.2568 69.8838 44.2334 69.8838 41.8955C69.8838 39.749 70.1572 37.8213 70.7041 36.1123C71.2509 34.3896 72.0644 32.9268 73.1445 31.7236C74.2246 30.5205 75.5576 29.5977 77.1435 28.9551C78.7431 28.3125 80.5957 27.9912 82.7011 27.9912C84.7109 27.9912 86.4814 28.2578 88.0127 28.791C89.5576 29.3242 90.8427 30.1445 91.8681 31.252C92.9072 32.3594 93.6865 33.7607 94.206 35.4561C94.7392 37.1377 95.0058 39.127 95.0058 41.4238ZM89.3457 41.7109C89.3457 40.3164 89.2363 39.0518 89.0175 37.917C88.7988 36.7686 88.4228 35.791 87.8896 34.9844C87.3701 34.1641 86.6728 33.5352 85.7978 33.0977C84.9228 32.6465 83.8291 32.4209 82.5166 32.4209C81.1904 32.4209 80.083 32.6738 79.1943 33.1797C78.3056 33.6719 77.5879 34.335 77.041 35.1689C76.4941 36.0029 76.1045 36.9805 75.872 38.1016C75.6533 39.209 75.5439 40.3848 75.5439 41.6289C75.5439 43.0781 75.6533 44.3838 75.872 45.5459C76.0908 46.6943 76.4599 47.6787 76.9795 48.499C77.499 49.3193 78.1963 49.9482 79.0713 50.3857C79.9463 50.8096 81.0468 51.0215 82.373 51.0215C83.6992 51.0215 84.8066 50.7754 85.6953 50.2832C86.5839 49.791 87.3017 49.1211 87.8486 48.2734C88.3955 47.4258 88.7783 46.4414 88.997 45.3203C89.2295 44.1855 89.3457 42.9824 89.3457 41.7109ZM132.374 54.2617C132.374 54.3984 132.333 54.5215 132.251 54.6309C132.183 54.7402 132.046 54.8291 131.841 54.8975C131.65 54.9658 131.39 55.0205 131.062 55.0615C130.734 55.1025 130.317 55.123 129.811 55.123C129.319 55.123 128.909 55.1025 128.58 55.0615C128.252 55.0205 127.993 54.9658 127.801 54.8975C127.61 54.8291 127.473 54.7402 127.391 54.6309C127.309 54.5215 127.268 54.3984 127.268 54.2617V32.667H127.227L119.536 54.2412C119.482 54.4189 119.393 54.5693 119.27 54.6924C119.147 54.8018 118.976 54.8906 118.757 54.959C118.552 55.0273 118.285 55.0684 117.957 55.082C117.629 55.1094 117.233 55.123 116.768 55.123C116.303 55.123 115.907 55.1025 115.578 55.0615C115.25 55.0342 114.977 54.9863 114.758 54.918C114.553 54.8359 114.389 54.7402 114.266 54.6309C114.143 54.5215 114.061 54.3916 114.02 54.2412L106.596 32.667H106.555V54.2617C106.555 54.3984 106.514 54.5215 106.432 54.6309C106.364 54.7402 106.227 54.8291 106.022 54.8975C105.817 54.9658 105.55 55.0205 105.222 55.0615C104.908 55.1025 104.497 55.123 103.992 55.123C103.499 55.123 103.089 55.1025 102.761 55.0615C102.433 55.0205 102.166 54.9658 101.961 54.8975C101.77 54.8291 101.633 54.7402 101.551 54.6309C101.483 54.5215 101.449 54.3984 101.449 54.2617V30.6162C101.449 29.9189 101.633 29.3857 102.002 29.0166C102.371 28.6475 102.864 28.4629 103.479 28.4629H107.006C107.635 28.4629 108.175 28.5176 108.626 28.627C109.077 28.7227 109.467 28.8936 109.795 29.1396C110.123 29.3721 110.397 29.6865 110.616 30.083C110.834 30.4658 111.026 30.9443 111.19 31.5186L116.932 47.3301H117.014L122.961 31.5596C123.139 30.9854 123.33 30.5 123.535 30.1035C123.754 29.707 124 29.3857 124.274 29.1396C124.561 28.8936 124.896 28.7227 125.279 28.627C125.661 28.5176 126.106 28.4629 126.612 28.4629H130.242C130.611 28.4629 130.925 28.5107 131.185 28.6064C131.458 28.7021 131.677 28.8457 131.841 29.0371C132.019 29.2148 132.149 29.4404 132.231 29.7139C132.326 29.9736 132.374 30.2744 132.374 30.6162V54.2617ZM159.263 47.043C159.263 47.9863 159.133 48.8408 158.874 49.6064C158.614 50.3721 158.252 51.0488 157.787 51.6367C157.336 52.2246 156.789 52.7305 156.146 53.1543C155.517 53.5781 154.82 53.9268 154.054 54.2002C153.289 54.4736 152.468 54.6787 151.593 54.8154C150.732 54.9385 149.768 55 148.702 55H141.647C141.196 55 140.813 54.8701 140.499 54.6104C140.198 54.3369 140.048 53.8994 140.048 53.2979V30.165C140.048 29.5635 140.198 29.1328 140.499 28.873C140.813 28.5996 141.196 28.4629 141.647 28.4629H148.312C149.939 28.4629 151.313 28.5996 152.434 28.873C153.569 29.1465 154.519 29.5635 155.285 30.124C156.064 30.6709 156.659 31.3682 157.069 32.2158C157.479 33.0635 157.684 34.0615 157.684 35.21C157.684 35.8525 157.602 36.4609 157.438 37.0352C157.274 37.5957 157.035 38.1084 156.72 38.5732C156.406 39.0381 156.016 39.4482 155.551 39.8037C155.1 40.1592 154.581 40.4463 153.993 40.665C154.745 40.8018 155.435 41.041 156.064 41.3828C156.707 41.7246 157.26 42.1689 157.725 42.7158C158.204 43.249 158.58 43.8779 158.853 44.6025C159.127 45.3271 159.263 46.1406 159.263 47.043ZM152.291 35.8662C152.291 35.333 152.209 34.8545 152.045 34.4307C151.881 34.0068 151.634 33.6582 151.306 33.3848C150.978 33.0977 150.561 32.8789 150.055 32.7285C149.563 32.5781 148.9 32.5029 148.066 32.5029H145.339V39.3936H148.353C149.132 39.3936 149.755 39.3047 150.219 39.127C150.684 38.9355 151.067 38.6826 151.368 38.3682C151.682 38.04 151.915 37.6641 152.065 37.2402C152.216 36.8027 152.291 36.3447 152.291 35.8662ZM153.665 47.2275C153.665 46.6123 153.562 46.0654 153.357 45.5869C153.152 45.0947 152.851 44.6846 152.455 44.3564C152.058 44.0283 151.552 43.7754 150.937 43.5977C150.322 43.4199 149.522 43.3311 148.538 43.3311H145.339V50.8779H149.235C149.987 50.8779 150.616 50.8027 151.122 50.6523C151.641 50.4883 152.086 50.2559 152.455 49.9551C152.838 49.6406 153.132 49.2578 153.337 48.8066C153.555 48.3418 153.665 47.8154 153.665 47.2275ZM174.771 44.9307V54.2617C174.771 54.3984 174.723 54.5215 174.627 54.6309C174.545 54.7402 174.401 54.8291 174.196 54.8975C173.991 54.9658 173.711 55.0205 173.356 55.0615C173.014 55.1025 172.583 55.123 172.064 55.123C171.53 55.123 171.093 55.1025 170.751 55.0615C170.409 55.0205 170.129 54.9658 169.91 54.8975C169.705 54.8291 169.562 54.7402 169.48 54.6309C169.397 54.5215 169.356 54.3984 169.356 54.2617V44.9307L162.097 30.4727C161.837 29.9668 161.666 29.5771 161.584 29.3037C161.516 29.0166 161.557 28.8047 161.707 28.668C161.871 28.5176 162.165 28.4287 162.589 28.4014C163.013 28.3604 163.601 28.3398 164.353 28.3398C164.981 28.3398 165.481 28.3535 165.85 28.3809C166.232 28.4082 166.533 28.4629 166.752 28.5449C166.971 28.6133 167.128 28.709 167.224 28.832C167.333 28.9551 167.436 29.1123 167.531 29.3037L170.484 35.8252C170.772 36.4541 171.052 37.1172 171.325 37.8145C171.612 38.5117 171.899 39.2432 172.187 40.0088H172.228C172.487 39.2705 172.754 38.5527 173.027 37.8555C173.301 37.1582 173.567 36.4951 173.827 35.8662L176.739 29.3857C176.808 29.167 176.89 28.9961 176.985 28.873C177.095 28.7363 177.252 28.627 177.457 28.5449C177.662 28.4629 177.942 28.4082 178.298 28.3809C178.653 28.3535 179.125 28.3398 179.713 28.3398C180.492 28.3398 181.094 28.3604 181.518 28.4014C181.955 28.4287 182.249 28.5176 182.399 28.668C182.564 28.8047 182.605 29.0166 182.522 29.3037C182.44 29.5908 182.276 29.9805 182.03 30.4727L174.771 44.9307ZM209.637 53.1133C209.637 53.4277 209.582 53.708 209.473 53.9541C209.364 54.2002 209.213 54.4053 209.022 54.5693C208.844 54.7334 208.625 54.8564 208.366 54.9385C208.12 55.0068 207.867 55.041 207.607 55.041H205.31C204.831 55.041 204.414 54.9932 204.059 54.8975C203.717 54.8018 203.396 54.6309 203.095 54.3848C202.808 54.125 202.528 53.7832 202.254 53.3594C201.981 52.9219 201.673 52.3613 201.331 51.6777L194.728 39.2705C194.345 38.5322 193.955 37.7393 193.559 36.8916C193.163 36.0303 192.807 35.1963 192.493 34.3896H192.452C192.506 35.374 192.547 36.3584 192.575 37.3428C192.602 38.3135 192.616 39.3184 192.616 40.3574V54.2412C192.616 54.3779 192.575 54.501 192.493 54.6104C192.424 54.7197 192.294 54.8154 192.103 54.8975C191.925 54.9658 191.679 55.0205 191.365 55.0615C191.05 55.1025 190.647 55.123 190.155 55.123C189.676 55.123 189.28 55.1025 188.965 55.0615C188.651 55.0205 188.405 54.9658 188.227 54.8975C188.049 54.8154 187.926 54.7197 187.858 54.6104C187.789 54.501 187.755 54.3779 187.755 54.2412V30.3906C187.755 29.748 187.94 29.2695 188.309 28.9551C188.692 28.627 189.157 28.4629 189.704 28.4629H192.595C193.115 28.4629 193.552 28.5107 193.908 28.6064C194.263 28.6885 194.578 28.832 194.851 29.0371C195.138 29.2422 195.405 29.5293 195.651 29.8984C195.897 30.2539 196.15 30.6982 196.41 31.2314L201.578 40.9316C201.878 41.5195 202.172 42.1006 202.459 42.6748C202.76 43.2354 203.047 43.8027 203.321 44.377C203.594 44.9375 203.861 45.4912 204.121 46.0381C204.38 46.585 204.633 47.1318 204.879 47.6787H204.9C204.859 46.7217 204.825 45.7236 204.797 44.6846C204.784 43.6455 204.777 42.6543 204.777 41.7109V29.2627C204.777 29.126 204.818 29.0029 204.9 28.8936C204.982 28.7842 205.119 28.6885 205.31 28.6064C205.501 28.5244 205.754 28.4697 206.069 28.4424C206.383 28.4014 206.787 28.3809 207.279 28.3809C207.744 28.3809 208.133 28.4014 208.448 28.4424C208.762 28.4697 209.001 28.5244 209.165 28.6064C209.343 28.6885 209.466 28.7842 209.535 28.8936C209.603 29.0029 209.637 29.126 209.637 29.2627V53.1133Z" fill="#505050"/>
<path d="M65.6559 51.8623L64.662 51.7519L64.6591 51.7777L64.6576 51.8036L65.6559 51.8623ZM65.5738 52.4775L66.544 52.7201L66.5462 52.7113L66.5482 52.7024L65.5738 52.4775ZM65.0816 53.3389L65.7887 54.046L65.8041 54.0306L65.8188 54.0146L65.0816 53.3389ZM64.1998 53.9336L63.7095 53.0619L63.6977 53.0688L64.1998 53.9336ZM62.6207 54.6514L62.9557 55.5937L62.9674 55.5894L62.6207 54.6514ZM60.4879 55.2051L60.3046 54.222L60.3016 54.2226L60.4879 55.2051ZM49.2496 52.0879L48.5117 52.7628L48.5159 52.7673L49.2496 52.0879ZM53.3717 28.9551L52.996 28.0283L52.993 28.0295L53.3717 28.9551ZM62.3951 28.709L62.0588 29.6507L62.0721 29.6555L62.0855 29.6599L62.3951 28.709ZM64.9381 30.0625L64.2053 30.743L64.2305 30.7701L64.2576 30.7953L64.9381 30.0625ZM65.5738 31.6621L64.5752 31.7147L64.5766 31.7408L64.5793 31.7668L65.5738 31.6621ZM64.0768 34.5332L63.4605 35.3207L63.4713 35.3292L63.4824 35.3374L64.0768 34.5332ZM62.8463 33.7334L62.3248 34.5867L62.3386 34.5951L62.3527 34.6031L62.8463 33.7334ZM61.0621 32.9336L60.7234 33.8745L60.7346 33.8785L60.7459 33.8823L61.0621 32.9336ZM55.7711 33.2207L56.2301 34.1091L56.2356 34.1063L55.7711 33.2207ZM53.6588 35.0664L52.8506 34.4774L52.8488 34.4799L53.6588 35.0664ZM52.3668 45.8535L51.4023 46.1176L51.4042 46.1245L51.4062 46.1313L52.3668 45.8535ZM53.7408 48.6631L52.9585 49.2861L52.9656 49.2948L53.7408 48.6631ZM55.8941 50.3242L55.4894 51.2386L55.4984 51.2426L55.5074 51.2464L55.8941 50.3242ZM61.2262 50.5293L61.5255 51.4834L61.534 51.4808L61.5424 51.478L61.2262 50.5293ZM63.0104 49.7705L62.5348 48.8907L62.5247 48.8964L63.0104 49.7705ZM64.2408 49.0322L63.6861 48.2002L63.6779 48.2057L63.6698 48.2113L64.2408 49.0322ZM65.6559 49.8115L64.66 49.9021L64.6604 49.9063L65.6559 49.8115ZM64.6969 50.9805C64.6969 51.2981 64.684 51.5533 64.662 51.7519L66.6497 51.9727C66.6824 51.6792 66.6969 51.3464 66.6969 50.9805H64.6969ZM64.6576 51.8036C64.6464 51.9945 64.625 52.1421 64.5994 52.2527L66.5482 52.7024C66.6047 52.4575 66.638 52.1949 66.6541 51.921L64.6576 51.8036ZM64.6037 52.235C64.5798 52.3306 64.554 52.3895 64.5356 52.4226L66.2839 53.3938C66.4023 53.1808 66.4858 52.9526 66.544 52.7201L64.6037 52.235ZM64.5356 52.4226C64.5207 52.4494 64.4687 52.5276 64.3445 52.6631L65.8188 54.0146C65.9953 53.822 66.1621 53.6131 66.2839 53.3938L64.5356 52.4226ZM64.3745 52.6318C64.3307 52.6756 64.1459 52.8166 63.7095 53.062L64.6901 54.8052C65.1287 54.5584 65.5318 54.303 65.7887 54.046L64.3745 52.6318ZM63.6977 53.0688C63.3378 53.2778 62.8673 53.4941 62.2741 53.7134L62.9674 55.5894C63.632 55.3437 64.2142 55.0816 64.7019 54.7984L63.6977 53.0688ZM62.2857 53.7092C61.7305 53.9065 61.0721 54.0789 60.3046 54.222L60.6712 56.1881C61.5169 56.0305 62.2804 55.8337 62.9557 55.5936L62.2857 53.7092ZM60.3016 54.2226C59.5784 54.3597 58.7803 54.4307 57.9039 54.4307V56.4307C58.8869 56.4307 59.8114 56.3512 60.6742 56.1876L60.3016 54.2226ZM57.9039 54.4307C56.1885 54.4307 54.6717 54.1664 53.3398 53.656L52.6242 55.5236C54.2181 56.1344 55.9826 56.4307 57.9039 56.4307V54.4307ZM53.3398 53.656C52.0145 53.1482 50.9006 52.3991 49.9834 51.4085L48.5159 52.7673C49.6494 53.9915 51.0238 54.9104 52.6242 55.5236L53.3398 53.656ZM49.9875 51.413C49.0716 50.4116 48.3509 49.1467 47.8414 47.5927L45.941 48.2158C46.5252 49.9978 47.3768 51.522 48.5117 52.7628L49.9875 51.413ZM47.8414 47.5927C47.3349 46.0477 47.0709 44.2155 47.0709 42.0801H45.0709C45.0709 44.3743 45.3538 46.425 45.941 48.2158L47.8414 47.5927ZM47.0709 42.0801C47.0709 39.9114 47.3602 38.0217 47.9189 36.3964L46.0276 35.7462C45.3831 37.6209 45.0709 39.737 45.0709 42.0801H47.0709ZM47.9189 36.3964C48.483 34.7555 49.2601 33.4091 50.236 32.3344L48.7554 30.9899C47.5712 32.294 46.6666 33.8871 46.0276 35.7462L47.9189 36.3964ZM50.236 32.3344C51.2148 31.2565 52.3827 30.4401 53.7503 29.8806L52.993 28.0295C51.3528 28.7005 49.9368 29.6888 48.7554 30.9899L50.236 32.3344ZM53.7474 29.8818C55.1331 29.32 56.6718 29.0322 58.3756 29.0322V27.0322C56.4427 27.0322 54.6454 27.3596 52.996 28.0283L53.7474 29.8818ZM58.3756 29.0322C59.0582 29.0322 59.7097 29.0891 60.3312 29.201L60.6856 27.2326C59.94 27.0984 59.1696 27.0322 58.3756 27.0322V29.0322ZM60.3312 29.201C60.968 29.3156 61.5429 29.4665 62.0588 29.6507L62.7315 27.7672C62.0989 27.5413 61.416 27.3641 60.6856 27.2326L60.3312 29.201ZM62.0855 29.6599C62.6212 29.8343 63.0865 30.0352 63.4864 30.2587L64.462 28.5128C63.9323 28.2167 63.3448 27.9665 62.7047 27.7581L62.0855 29.6599ZM63.4864 30.2587C63.9343 30.509 64.1397 30.6723 64.2053 30.743L65.6709 29.382C65.3811 29.0699 64.9438 28.782 64.462 28.5128L63.4864 30.2587ZM64.2576 30.7953C64.3343 30.8665 64.3874 30.9218 64.4222 30.9622C64.4591 31.0049 64.4631 31.0165 64.4536 30.9993L66.2019 30.028C66.0559 29.7652 65.833 29.5289 65.6185 29.3297L64.2576 30.7953ZM64.4536 30.9993C64.4593 31.0096 64.4862 31.0654 64.514 31.1949L66.4696 30.7758C66.4153 30.5225 66.3329 30.2638 66.2019 30.028L64.4536 30.9993ZM64.514 31.1949C64.541 31.321 64.5635 31.4917 64.5752 31.7147L66.5724 31.6096C66.5568 31.313 66.5246 31.0326 66.4696 30.7758L64.514 31.1949ZM64.5793 31.7668C64.6018 31.9799 64.6148 32.2636 64.6148 32.626H66.6148C66.6148 32.2227 66.6006 31.8639 66.5683 31.5574L64.5793 31.7668ZM64.6148 32.626C64.6148 33.0165 64.6017 33.3315 64.5783 33.5771L66.5693 33.7667C66.6006 33.438 66.6148 33.0558 66.6148 32.626H64.6148ZM64.5783 33.5771C64.5557 33.8151 64.5205 33.9488 64.4969 34.0102L66.3636 34.7281C66.4768 34.434 66.5373 34.1029 66.5693 33.7667L64.5783 33.5771ZM64.4969 34.0102C64.4892 34.0303 64.4827 34.0447 64.4781 34.0543C64.4734 34.0638 64.4711 34.0672 64.472 34.0659C64.4731 34.0642 64.491 34.0358 64.5334 33.9995L65.835 35.518C66.1047 35.2868 66.2636 34.9881 66.3636 34.7281L64.4969 34.0102ZM64.5334 33.9995C64.5673 33.9705 64.6161 33.9384 64.6792 33.9147C64.7427 33.8909 64.8041 33.8818 64.8561 33.8818V35.8818C65.2241 35.8818 65.5629 35.7513 65.835 35.518L64.5334 33.9995ZM64.8561 33.8818C64.9377 33.8818 64.9638 33.9033 64.9158 33.8819C64.8709 33.8618 64.7903 33.8171 64.6712 33.729L63.4824 35.3374C63.8355 35.5984 64.3158 35.8818 64.8561 35.8818V33.8818ZM64.6931 33.7457C64.3267 33.4589 63.8711 33.1652 63.3399 32.8637L62.3527 34.6031C62.8332 34.8758 63.198 35.1153 63.4605 35.3207L64.6931 33.7457ZM63.3677 32.8801C62.7962 32.5308 62.1289 32.2351 61.3783 31.9849L60.7459 33.8823C61.3899 34.0969 61.912 34.3344 62.3248 34.5867L63.3677 32.8801ZM61.4008 31.9927C60.5803 31.6973 59.6391 31.5645 58.6012 31.5645V33.5645C59.4773 33.5645 60.1768 33.6777 60.7234 33.8745L61.4008 31.9927ZM58.6012 31.5645C57.406 31.5645 56.3 31.814 55.3065 32.3352L56.2356 34.1063C56.9101 33.7524 57.6909 33.5645 58.6012 33.5645V31.5645ZM55.3121 32.3323C54.3427 32.8331 53.5225 33.5556 52.8506 34.4774L54.4669 35.6554C54.9709 34.964 55.5588 34.456 56.2301 34.1091L55.3121 32.3323ZM52.8488 34.4799C52.1898 35.39 51.7058 36.4713 51.3797 37.7018L53.3129 38.2142C53.5883 37.1752 53.9794 36.3287 54.4687 35.6529L52.8488 34.4799ZM51.3797 37.7018C51.0526 38.9356 50.8951 40.3021 50.8951 41.793H52.8951C52.8951 40.4401 53.0384 39.25 53.3129 38.2142L51.3797 37.7018ZM50.8951 41.793C50.8951 43.415 51.0583 44.8613 51.4023 46.1176L53.3313 45.5894C53.0464 44.5488 52.8951 43.2882 52.8951 41.793H50.8951ZM51.4062 46.1313C51.7618 47.3612 52.2715 48.4232 52.9585 49.286L54.5231 48.0402C54.0343 47.4264 53.6281 46.6154 53.3274 45.5757L51.4062 46.1313ZM52.9656 49.2948C53.6621 50.1496 54.5049 50.8029 55.4894 51.2386L56.2989 49.4098C55.6154 49.1073 55.0227 48.6531 54.5161 48.0314L52.9656 49.2948ZM55.5074 51.2464C56.494 51.6602 57.5784 51.8574 58.7447 51.8574V49.8574C57.8056 49.8574 56.9895 49.6992 56.2809 49.402L55.5074 51.2464ZM58.7447 51.8574C59.7737 51.8574 60.7067 51.7403 61.5255 51.4834L60.9268 49.5751C60.3511 49.7558 59.6298 49.8574 58.7447 49.8574V51.8574ZM61.5424 51.478C62.2816 51.2316 62.9363 50.9556 63.496 50.6447L62.5247 48.8964C62.1 49.1323 61.5652 49.3622 60.9099 49.5806L61.5424 51.478ZM63.4859 50.6502C64.0101 50.3668 64.4556 50.101 64.8119 49.8531L63.6698 48.2113C63.3971 48.401 63.0223 48.6273 62.5348 48.8908L63.4859 50.6502ZM64.7955 49.8643C64.9291 49.7753 65.02 49.7271 65.0735 49.704C65.099 49.693 65.1066 49.6918 65.0984 49.6938C65.0908 49.6958 65.0558 49.7041 64.9996 49.7041V47.7041C64.72 47.7041 64.4697 47.7861 64.2797 47.8683C64.0803 47.9545 63.8807 48.0704 63.6861 48.2002L64.7955 49.8643ZM64.9996 49.7041C65.0127 49.7041 64.9075 49.7078 64.773 49.6182L65.8824 47.9541C65.5839 47.7551 65.26 47.7041 64.9996 47.7041V49.7041ZM64.773 49.6182C64.6655 49.5465 64.6114 49.4694 64.5925 49.4392C64.5734 49.4086 64.5739 49.3998 64.5841 49.4305L66.4815 48.798C66.4039 48.5652 66.2442 48.1953 65.8824 47.9541L64.773 49.6182ZM64.5841 49.4305C64.6029 49.4867 64.6353 49.6302 64.66 49.9021L66.6518 49.721C66.6218 49.3913 66.5721 49.0699 66.4815 48.798L64.5841 49.4305ZM64.6604 49.9063C64.6833 50.1476 64.6969 50.5012 64.6969 50.9805H66.6969C66.6969 50.4753 66.6831 50.0497 66.6514 49.7167L64.6604 49.9063ZM91.7451 51.7598L92.4892 52.4278L92.493 52.4236L91.7451 51.7598ZM87.7255 54.5283L88.0942 55.4579L88.0983 55.4562L87.7255 54.5283ZM76.7949 54.6719L76.4585 55.6137L76.4686 55.6172L76.7949 54.6719ZM70.6425 47.9658L69.6836 48.2497L69.6858 48.2567L70.6425 47.9658ZM70.7041 36.1123L71.6565 36.4171L71.6572 36.4149L70.7041 36.1123ZM77.1435 28.9551L76.7708 28.0271L76.768 28.0283L77.1435 28.9551ZM88.0127 28.791L87.6838 29.7354L87.6864 29.7363L88.0127 28.791ZM91.8681 31.252L91.1343 31.9314L91.1389 31.9362L91.8681 31.252ZM94.206 35.4561L93.2499 35.7491L93.2528 35.7583L94.206 35.4561ZM89.0175 37.917L88.0352 38.1041L88.0356 38.1063L89.0175 37.917ZM87.8896 34.9844L87.0448 35.5194L87.05 35.5277L87.0554 35.5358L87.8896 34.9844ZM85.7978 33.0977L85.3395 33.9865L85.3506 33.9921L85.7978 33.0977ZM79.1943 33.1797L79.6788 34.0545L79.689 34.0488L79.1943 33.1797ZM75.872 38.1016L74.8928 37.8986L74.891 37.9078L75.872 38.1016ZM75.872 45.5459L74.8893 45.7309L74.8897 45.733L75.872 45.5459ZM79.0713 50.3857L78.624 51.2802L78.6353 51.2857L79.0713 50.3857ZM88.997 45.3203L88.0173 45.1196L88.0155 45.1288L88.997 45.3203ZM94.0058 41.4238C94.0058 43.5437 93.7423 45.4084 93.2317 47.0297L95.1393 47.6305C95.7224 45.7791 96.0058 43.7063 96.0058 41.4238H94.0058ZM93.2317 47.0297C92.7221 48.6477 91.9733 49.9963 90.9972 51.0959L92.493 52.4236C93.677 51.0896 94.5552 49.4851 95.1393 47.6305L93.2317 47.0297ZM91.0009 51.0917C90.0298 52.1735 88.82 53.011 87.3528 53.6004L88.0983 55.4562C89.8303 54.7605 91.3002 53.7523 92.4892 52.4278L91.0009 51.0917ZM87.3569 53.5987C85.9115 54.1719 84.2022 54.4717 82.2089 54.4717V56.4717C84.3993 56.4717 86.3677 56.1425 88.0942 55.4579L87.3569 53.5987ZM82.2089 54.4717C80.2276 54.4717 78.5376 54.2155 77.1211 53.7266L76.4686 55.6172C78.142 56.1947 80.0614 56.4717 82.2089 56.4717V54.4717ZM77.1312 53.7301C75.7396 53.2331 74.6013 52.4912 73.6937 51.511L72.2262 52.8698C73.3693 54.1045 74.7877 55.0169 76.4585 55.6136L77.1312 53.7301ZM73.6937 51.511C72.7883 50.5332 72.0829 49.2656 71.5993 47.675L69.6858 48.2567C70.2413 50.084 71.0808 51.6329 72.2262 52.8698L73.6937 51.511ZM71.6014 47.682C71.1298 46.0887 70.8838 44.1654 70.8838 41.8955H68.8838C68.8838 44.3014 69.1436 46.425 69.6837 48.2496L71.6014 47.682ZM70.8838 41.8955C70.8838 39.8328 71.1466 38.0104 71.6565 36.4171L69.7516 35.8075C69.1678 37.6322 68.8838 39.6652 68.8838 41.8955H70.8838ZM71.6572 36.4149C72.1662 34.8115 72.914 33.4774 73.8886 32.3917L72.4004 31.0556C71.2149 32.3762 70.3357 33.9678 69.7509 35.8097L71.6572 36.4149ZM73.8886 32.3917C74.8612 31.3083 76.0656 30.4708 77.519 29.8819L76.768 28.0283C75.0495 28.7245 73.5879 29.7327 72.4004 31.0556L73.8886 32.3917ZM77.5163 29.883C78.9743 29.2973 80.6959 28.9912 82.7011 28.9912V26.9912C80.4954 26.9912 78.5119 27.3277 76.7708 28.0271L77.5163 29.883ZM82.7011 28.9912C84.6247 28.9912 86.2801 29.2466 87.6838 29.7354L88.3415 27.8466C86.6827 27.269 84.7971 26.9912 82.7011 26.9912V28.9912ZM87.6864 29.7363C89.0889 30.2203 90.23 30.9546 91.1344 31.9314L92.6019 30.5725C91.4555 29.3344 90.0263 28.4281 88.3389 27.8457L87.6864 29.7363ZM91.1389 31.9362C92.0573 32.915 92.7676 34.1754 93.2499 35.7491L95.1621 35.1631C94.6053 33.3461 93.7571 31.8037 92.5974 30.5677L91.1389 31.9362ZM93.2528 35.7583C93.7473 37.3178 94.0058 39.2003 94.0058 41.4238H96.0058C96.0058 39.0536 95.7312 36.9576 95.1592 35.1538L93.2528 35.7583ZM90.3457 41.7109C90.3457 40.2654 90.2324 38.9361 89.9995 37.7277L88.0356 38.1063C88.2402 39.1675 88.3457 40.3674 88.3457 41.7109H90.3457ZM89.9999 37.7299C89.7614 36.4779 89.3436 35.3705 88.7238 34.4329L87.0554 35.5358C87.502 36.2115 87.8362 37.0592 88.0352 38.1041L89.9999 37.7299ZM88.7344 34.4493C88.1168 33.4741 87.2815 32.7215 86.245 32.2032L85.3506 33.9921C86.0641 34.3488 86.6234 34.8541 87.0448 35.5194L88.7344 34.4493ZM86.2561 32.2089C85.2002 31.6644 83.9376 31.4209 82.5166 31.4209V33.4209C83.7205 33.4209 84.6455 33.6286 85.3395 33.9865L86.2561 32.2089ZM82.5166 31.4209C81.0671 31.4209 79.7774 31.6971 78.6996 32.3106L79.689 34.0488C80.3886 33.6505 81.3136 33.4209 82.5166 33.4209V31.4209ZM78.7098 32.3049C77.6819 32.8742 76.8423 33.6482 76.2047 34.6206L77.8772 35.7173C78.3334 35.0217 78.9294 34.4695 79.6788 34.0545L78.7098 32.3049ZM76.2047 34.6206C75.5795 35.5741 75.1471 36.6724 74.8929 37.8986L76.8512 38.3046C77.0619 37.2885 77.4087 36.4318 77.8772 35.7173L76.2047 34.6206ZM74.891 37.9078C74.6584 39.0851 74.5439 40.3262 74.5439 41.6289H76.5439C76.5439 40.4433 76.6481 39.3328 76.8531 38.2953L74.891 37.9078ZM74.5439 41.6289C74.5439 43.1269 74.6568 44.496 74.8893 45.7309L76.8548 45.3609C76.6497 44.2716 76.5439 43.0294 76.5439 41.6289H74.5439ZM74.8897 45.733C75.1273 46.9805 75.5356 48.0882 76.1346 49.0341L77.8243 47.964C77.3843 47.2692 77.0543 46.4082 76.8544 45.3588L74.8897 45.733ZM76.1346 49.0341C76.7523 50.0093 77.5876 50.7619 78.624 51.2802L79.5185 49.4913C78.8049 49.1346 78.2457 48.6293 77.8243 47.964L76.1346 49.0341ZM78.6353 51.2857C79.6863 51.7948 80.9479 52.0215 82.373 52.0215V50.0215C81.1458 50.0215 80.2062 49.8243 79.5072 49.4858L78.6353 51.2857ZM82.373 52.0215C83.8184 52.0215 85.1043 51.7536 86.1798 51.158L85.2108 49.4084C84.5089 49.7972 83.5799 50.0215 82.373 50.0215V52.0215ZM86.1798 51.158C87.2116 50.5865 88.052 49.8028 88.6889 48.8156L87.0083 47.7313C86.5514 48.4394 85.9563 48.9955 85.2108 49.4084L86.1798 51.158ZM88.6889 48.8156C89.3132 47.8479 89.7386 46.7413 89.9785 45.5118L88.0155 45.1288C87.8179 46.1415 87.4777 47.0037 87.0083 47.7313L88.6889 48.8156ZM89.9767 45.521C90.2239 44.3141 90.3457 43.0433 90.3457 41.7109H88.3457C88.3457 42.9215 88.235 44.057 88.0174 45.1197L89.9767 45.521ZM132.251 54.6309L131.451 54.0309L131.426 54.0648L131.403 54.1009L132.251 54.6309ZM131.841 54.8975L131.525 53.9488L131.515 53.9521L131.505 53.9557L131.841 54.8975ZM127.268 32.667H128.268V31.667H127.268V32.667ZM127.227 32.667V31.667H126.522L126.285 32.3312L127.227 32.667ZM119.536 54.2412L118.594 53.9054L118.587 53.9261L118.581 53.9471L119.536 54.2412ZM119.27 54.6924L119.934 55.4398L119.956 55.4203L119.977 55.3995L119.27 54.6924ZM118.757 54.959L118.459 54.0045L118.45 54.0073L118.441 54.0103L118.757 54.959ZM117.957 55.082L117.916 54.0829L117.895 54.0838L117.874 54.0855L117.957 55.082ZM115.578 55.0615L115.702 54.0692L115.682 54.0667L115.661 54.065L115.578 55.0615ZM114.758 54.918L114.387 55.8464L114.423 55.8609L114.46 55.8724L114.758 54.918ZM114.02 54.2412L114.985 53.9781L114.976 53.9466L114.965 53.9158L114.02 54.2412ZM106.596 32.667L107.542 32.3416L107.309 31.667H106.596V32.667ZM106.555 32.667V31.667H105.555V32.667H106.555ZM106.432 54.6309L105.632 54.0309L105.606 54.0648L105.584 54.1009L106.432 54.6309ZM105.222 55.0615L105.098 54.0692L105.093 54.0699L105.222 55.0615ZM101.961 54.8975L101.625 55.8392L101.635 55.8428L101.645 55.8461L101.961 54.8975ZM101.551 54.6309L100.703 55.1609L100.726 55.1969L100.751 55.2309L101.551 54.6309ZM108.626 28.627L108.391 29.5988L108.405 29.6022L108.419 29.6052L108.626 28.627ZM109.795 29.1396L109.195 29.9396L109.206 29.9478L109.217 29.9557L109.795 29.1396ZM110.616 30.083L109.74 30.5661L109.744 30.5726L109.747 30.5791L110.616 30.083ZM111.19 31.5186L110.228 31.7933L110.238 31.827L110.25 31.8599L111.19 31.5186ZM116.932 47.3301L115.992 47.6714L116.231 48.3301H116.932V47.3301ZM117.014 47.3301V48.3301H117.706L117.95 47.6829L117.014 47.3301ZM122.961 31.5596L123.897 31.9124L123.908 31.8841L123.917 31.8553L122.961 31.5596ZM123.535 30.1035L122.66 29.6204L122.653 29.6322L122.647 29.6441L123.535 30.1035ZM124.274 29.1396L123.623 28.3804L123.614 28.3883L123.605 28.3964L124.274 29.1396ZM125.279 28.627L125.521 29.5971L125.537 29.5931L125.553 29.5885L125.279 28.627ZM131.185 28.6064L130.839 29.5448L130.847 29.5476L130.855 29.5503L131.185 28.6064ZM131.841 29.0371L131.082 29.6879L131.107 29.7171L131.134 29.7442L131.841 29.0371ZM132.231 29.7139L131.273 30.0012L131.282 30.0307L131.292 30.0596L132.231 29.7139ZM131.374 54.2617C131.374 54.2284 131.38 54.1862 131.395 54.1403C131.41 54.0945 131.431 54.0575 131.451 54.0309L133.051 55.2309C133.263 54.9484 133.374 54.6148 133.374 54.2617H131.374ZM131.403 54.1009C131.464 54.0037 131.53 53.9558 131.552 53.9411C131.574 53.927 131.571 53.9333 131.525 53.9488L132.157 55.8461C132.446 55.7499 132.848 55.5624 133.099 55.1609L131.403 54.1009ZM131.505 53.9557C131.411 53.9891 131.233 54.0324 130.938 54.0692L131.186 56.0538C131.547 56.0086 131.888 55.9425 132.177 55.8392L131.505 53.9557ZM130.938 54.0692C130.666 54.1032 130.294 54.123 129.811 54.123V56.123C130.339 56.123 130.801 56.1019 131.186 56.0538L130.938 54.0692ZM129.811 54.123C129.342 54.123 128.977 54.1033 128.704 54.0692L128.456 56.0538C128.84 56.1018 129.295 56.123 129.811 56.123V54.123ZM128.704 54.0692C128.41 54.0324 128.231 53.9891 128.137 53.9557L127.465 55.8392C127.754 55.9425 128.095 56.0086 128.456 56.0538L128.704 54.0692ZM128.137 53.9557C128.098 53.9416 128.089 53.9342 128.1 53.9411C128.111 53.9486 128.149 53.9756 128.191 54.0309L126.591 55.2309C126.835 55.5562 127.173 55.7351 127.465 55.8392L128.137 53.9557ZM128.191 54.0309C128.211 54.0575 128.232 54.0945 128.247 54.1403C128.263 54.1862 128.268 54.2284 128.268 54.2617H126.268C126.268 54.6148 126.379 54.9484 126.591 55.2309L128.191 54.0309ZM128.268 54.2617V32.667H126.268V54.2617H128.268ZM127.268 31.667H127.227V33.667H127.268V31.667ZM126.285 32.3312L118.594 53.9054L120.478 54.577L128.169 33.0028L126.285 32.3312ZM118.581 53.9471C118.575 53.9658 118.57 53.9752 118.568 53.9786C118.566 53.9817 118.565 53.9834 118.563 53.9853L119.977 55.3995C120.223 55.1532 120.393 54.8579 120.492 54.5353L118.581 53.9471ZM118.605 53.945C118.615 53.9365 118.612 53.9412 118.588 53.9538C118.564 53.9666 118.522 53.9847 118.459 54.0045L119.055 55.9135C119.36 55.8183 119.672 55.6727 119.934 55.4398L118.605 53.945ZM118.441 54.0103C118.358 54.038 118.193 54.0713 117.916 54.0829L117.999 56.0812C118.377 56.0654 118.746 56.0167 119.073 55.9077L118.441 54.0103ZM117.874 54.0855C117.582 54.1098 117.215 54.123 116.768 54.123V56.123C117.25 56.123 117.676 56.1089 118.04 56.0786L117.874 54.0855ZM116.768 54.123C116.329 54.123 115.977 54.1035 115.702 54.0692L115.454 56.0538C115.836 56.1016 116.277 56.123 116.768 56.123V54.123ZM115.661 54.065C115.378 54.0413 115.182 54.0028 115.056 53.9635L114.46 55.8724C114.772 55.9699 115.123 56.027 115.495 56.0581L115.661 54.065ZM115.13 53.9895C114.997 53.9367 114.943 53.8947 114.93 53.8834L113.602 55.3783C113.835 55.5857 114.109 55.7352 114.387 55.8464L115.13 53.9895ZM114.93 53.8834C114.934 53.8866 114.945 53.8976 114.958 53.9174C114.97 53.9376 114.979 53.959 114.985 53.9781L113.055 54.5043C113.15 54.8526 113.342 55.1476 113.602 55.3783L114.93 53.8834ZM114.965 53.9158L107.542 32.3416L105.65 32.9924L113.074 54.5666L114.965 53.9158ZM106.596 31.667H106.555V33.667H106.596V31.667ZM105.555 32.667V54.2617H107.555V32.667H105.555ZM105.555 54.2617C105.555 54.2284 105.56 54.1862 105.576 54.1403C105.591 54.0945 105.612 54.0575 105.632 54.0309L107.232 55.2309C107.444 54.9484 107.555 54.6148 107.555 54.2617H105.555ZM105.584 54.1009C105.645 54.0037 105.711 53.9558 105.733 53.9411C105.755 53.927 105.752 53.9333 105.706 53.9488L106.338 55.8461C106.627 55.7499 107.029 55.5624 107.28 55.1609L105.584 54.1009ZM105.706 53.9488C105.587 53.9884 105.391 54.0326 105.098 54.0692L105.346 56.0538C105.709 56.0084 106.047 55.9432 106.338 55.8461L105.706 53.9488ZM105.093 54.0699C104.839 54.1031 104.476 54.123 103.992 54.123V56.123C104.518 56.123 104.977 56.102 105.351 56.0531L105.093 54.0699ZM103.992 54.123C103.523 54.123 103.157 54.1033 102.885 54.0692L102.637 56.0538C103.021 56.1018 103.476 56.123 103.992 56.123V54.123ZM102.885 54.0692C102.592 54.0326 102.396 53.9884 102.277 53.9488L101.645 55.8461C101.936 55.9432 102.274 56.0084 102.637 56.0538L102.885 54.0692ZM102.298 53.9557C102.258 53.9416 102.25 53.9342 102.26 53.9411C102.272 53.9486 102.31 53.9756 102.351 54.0309L100.751 55.2309C100.995 55.5562 101.333 55.7351 101.625 55.8392L102.298 53.9557ZM102.399 54.1009C102.415 54.1268 102.429 54.1569 102.438 54.1889C102.446 54.2205 102.449 54.246 102.449 54.2617H100.449C100.449 54.5741 100.529 54.8829 100.703 55.1609L102.399 54.1009ZM102.449 54.2617V30.6162H100.449V54.2617H102.449ZM102.449 30.6162C102.449 30.0923 102.584 29.849 102.709 29.7237L101.295 28.3095C100.682 28.9225 100.449 29.7456 100.449 30.6162H102.449ZM102.709 29.7237C102.858 29.5753 103.078 29.4629 103.479 29.4629V27.4629C102.649 27.4629 101.885 27.7196 101.295 28.3095L102.709 29.7237ZM103.479 29.4629H107.006V27.4629H103.479V29.4629ZM107.006 29.4629C107.582 29.4629 108.038 29.5134 108.391 29.5988L108.862 27.6551C108.312 27.5218 107.688 27.4629 107.006 27.4629V29.4629ZM108.419 29.6052C108.745 29.6745 108.997 29.7911 109.195 29.9396L110.395 28.3396C109.937 27.996 109.409 27.7708 108.834 27.6487L108.419 29.6052ZM109.217 29.9557C109.408 30.0905 109.585 30.2848 109.74 30.5661L111.491 29.5999C111.209 29.0882 110.839 28.6536 110.373 28.3236L109.217 29.9557ZM109.747 30.5791C109.915 30.8725 110.079 31.271 110.228 31.7933L112.151 31.2438C111.972 30.6176 111.754 30.0591 111.484 29.5869L109.747 30.5791ZM110.25 31.8599L115.992 47.6714L117.872 46.9887L112.13 31.1772L110.25 31.8599ZM116.932 48.3301H117.014V46.3301H116.932V48.3301ZM117.95 47.6829L123.897 31.9124L122.026 31.2067L116.078 46.9772L117.95 47.6829ZM123.917 31.8553C124.082 31.3195 124.253 30.8925 124.424 30.5629L122.647 29.6441C122.408 30.1075 122.196 30.6512 122.006 31.2639L123.917 31.8553ZM124.411 30.5866C124.588 30.2661 124.769 30.0395 124.943 29.8829L123.605 28.3964C123.232 28.732 122.921 29.148 122.66 29.6204L124.411 30.5866ZM124.925 29.8989C125.089 29.7583 125.282 29.6568 125.521 29.5971L125.036 27.6568C124.509 27.7885 124.033 28.0288 123.623 28.3804L124.925 29.8989ZM125.553 29.5885C125.827 29.5104 126.175 29.4629 126.612 29.4629V27.4629C126.037 27.4629 125.496 27.5247 125.004 27.6654L125.553 29.5885ZM126.612 29.4629H130.242V27.4629H126.612V29.4629ZM130.242 29.4629C130.53 29.4629 130.72 29.5009 130.839 29.5448L131.531 27.6681C131.13 27.5205 130.692 27.4629 130.242 27.4629V29.4629ZM130.855 29.5503C130.987 29.5966 131.049 29.6491 131.082 29.6879L132.6 28.3863C132.305 28.0423 131.93 27.8077 131.515 27.6626L130.855 29.5503ZM131.134 29.7442C131.18 29.7898 131.232 29.8645 131.273 30.0012L133.189 29.4265C133.066 29.0163 132.858 28.6398 132.548 28.33L131.134 29.7442ZM131.292 30.0596C131.339 30.1861 131.374 30.3657 131.374 30.6162H133.374C133.374 30.1831 133.314 29.7612 133.169 29.3682L131.292 30.0596ZM131.374 30.6162V54.2617H133.374V30.6162H131.374ZM157.787 51.6367L157.002 51.0165L156.998 51.0222L156.993 51.0279L157.787 51.6367ZM156.146 53.1543L155.596 52.3195L155.587 52.325L156.146 53.1543ZM151.593 54.8154L151.735 55.8055L151.748 55.8034L151.593 54.8154ZM140.499 54.6104L139.826 55.3503L139.844 55.3662L139.862 55.3813L140.499 54.6104ZM140.499 28.873L141.152 29.6299L141.155 29.6277L140.499 28.873ZM152.434 28.873L152.197 29.8446L152.2 29.8452L152.434 28.873ZM155.285 30.124L154.694 30.9309L154.702 30.9368L154.71 30.9426L155.285 30.124ZM157.438 37.0352L158.398 37.3161L158.4 37.3099L157.438 37.0352ZM155.551 39.8037L154.944 39.0094L154.938 39.0137L154.933 39.0182L155.551 39.8037ZM153.993 40.665L153.644 39.7278L150.232 40.9976L153.814 41.6489L153.993 40.665ZM156.064 41.3828L155.587 42.2615L155.595 42.2657L156.064 41.3828ZM157.725 42.7158L156.963 43.3635L156.972 43.3737L156.981 43.3837L157.725 42.7158ZM151.306 33.3848L150.648 34.1373L150.657 34.1453L150.666 34.153L151.306 33.3848ZM150.055 32.7285L149.763 33.6849L149.77 33.6871L150.055 32.7285ZM145.339 32.5029V31.5029H144.339V32.5029H145.339ZM145.339 39.3936H144.339V40.3936H145.339V39.3936ZM150.219 39.127L150.577 40.061L150.588 40.0565L150.6 40.0516L150.219 39.127ZM151.368 38.3682L150.646 37.6763L150.645 37.6769L151.368 38.3682ZM152.065 37.2402L153.008 37.5747L153.011 37.5653L152.065 37.2402ZM153.357 45.5869L152.434 45.9715L152.438 45.9808L153.357 45.5869ZM145.339 43.3311V42.3311H144.339V43.3311H145.339ZM145.339 50.8779H144.339V51.8779H145.339V50.8779ZM151.122 50.6523L151.407 51.6109L151.415 51.6085L151.423 51.6059L151.122 50.6523ZM152.455 49.9551L153.086 50.7303L153.09 50.7278L152.455 49.9551ZM153.337 48.8066L152.432 48.3808L152.426 48.3928L153.337 48.8066ZM158.263 47.043C158.263 47.8949 158.146 48.6386 157.927 49.2851L159.821 49.9277C160.121 49.043 160.263 48.0778 160.263 47.043H158.263ZM157.927 49.2851C157.701 49.9511 157.391 50.525 157.002 51.0165L158.571 52.257C159.112 51.5726 159.527 50.793 159.821 49.9277L157.927 49.2851ZM156.993 51.0279C156.613 51.5241 156.149 51.9546 155.596 52.3195L156.697 53.9891C157.429 53.5064 158.059 52.9251 158.58 52.2455L156.993 51.0279ZM155.587 52.325C155.032 52.699 154.411 53.0111 153.718 53.2585L154.391 55.1419C155.229 54.8424 156.002 54.4572 156.705 53.9836L155.587 52.325ZM153.718 53.2585C153.016 53.509 152.258 53.6995 151.439 53.8274L151.748 55.8034C152.679 55.6579 153.561 55.4382 154.391 55.1419L153.718 53.2585ZM151.452 53.8255C150.647 53.9405 149.731 54 148.702 54V56C149.805 56 150.818 55.9364 151.735 55.8054L151.452 53.8255ZM148.702 54H141.647V56H148.702V54ZM141.647 54C141.402 54 141.252 53.9352 141.136 53.8394L139.862 55.3813C140.375 55.8051 140.99 56 141.647 56V54ZM141.171 53.8704C141.162 53.8621 141.048 53.754 141.048 53.2979H139.048C139.048 54.0448 139.234 54.8118 139.826 55.3503L141.171 53.8704ZM141.048 53.2979V30.165H139.048V53.2979H141.048ZM141.048 30.165C141.048 29.9428 141.076 29.8022 141.104 29.7206C141.118 29.6814 141.131 29.6587 141.138 29.6469C141.146 29.6358 141.15 29.6315 141.152 29.6299L139.845 28.1162C139.232 28.6461 139.048 29.4233 139.048 30.165H141.048ZM141.155 29.6277C141.272 29.5261 141.416 29.4629 141.647 29.4629V27.4629C140.976 27.4629 140.355 27.6732 139.843 28.1184L141.155 29.6277ZM141.647 29.4629H148.312V27.4629H141.647V29.4629ZM148.312 29.4629C149.889 29.4629 151.178 29.596 152.197 29.8446L152.671 27.9015C151.448 27.6032 149.989 27.4629 148.312 27.4629V29.4629ZM152.2 29.8452C153.235 30.0946 154.057 30.4642 154.694 30.9309L155.876 29.3172C154.982 28.6627 153.903 28.1984 152.669 27.9009L152.2 29.8452ZM154.71 30.9426C155.352 31.3927 155.834 31.9588 156.169 32.6514L157.969 31.7803C157.484 30.7775 156.776 29.9491 155.859 29.3055L154.71 30.9426ZM156.169 32.6514C156.5 33.3367 156.684 34.1798 156.684 35.21H158.684C158.684 33.9432 158.458 32.7902 157.969 31.7803L156.169 32.6514ZM156.684 35.21C156.684 35.7667 156.613 36.2821 156.477 36.7604L158.4 37.3099C158.591 36.6398 158.684 35.9384 158.684 35.21H156.684ZM156.478 36.7543C156.342 37.2195 156.146 37.6373 155.892 38.0129L157.549 39.1336C157.923 38.5795 158.206 37.9719 158.398 37.3161L156.478 36.7543ZM155.892 38.0129C155.641 38.3846 155.327 38.7166 154.944 39.0094L156.159 40.5981C156.706 40.1798 157.171 39.6916 157.549 39.1336L155.892 38.0129ZM154.933 39.0182C154.57 39.3037 154.144 39.542 153.644 39.7278L154.342 41.6023C155.018 41.3506 155.63 41.0146 156.17 40.5892L154.933 39.0182ZM153.814 41.6489C154.469 41.7679 155.057 41.9737 155.587 42.2614L156.542 40.5042C155.813 40.1083 155.021 39.8356 154.172 39.6812L153.814 41.6489ZM155.595 42.2657C156.127 42.5491 156.581 42.9141 156.963 43.3635L158.487 42.0682C157.939 41.4238 157.286 40.9001 156.534 40.4999L155.595 42.2657ZM156.981 43.3837C157.37 43.8175 157.684 44.3374 157.918 44.9556L159.789 44.2495C159.475 43.4184 159.037 42.6805 158.47 42.0479L156.981 43.3837ZM157.918 44.9556C158.142 45.5504 158.263 46.2417 158.263 47.043H160.263C160.263 46.0396 160.111 45.1039 159.789 44.2495L157.918 44.9556ZM153.291 35.8662C153.291 35.2305 153.193 34.6267 152.977 34.0697L151.112 34.7917C151.225 35.0823 151.291 35.4355 151.291 35.8662H153.291ZM152.977 34.0697C152.756 33.498 152.413 33.0057 151.947 32.6165L150.666 34.153C150.855 34.3107 151.005 34.5157 151.112 34.7917L152.977 34.0697ZM151.965 32.6322C151.508 32.2326 150.956 31.9529 150.34 31.77L149.77 33.6871C150.167 33.8049 150.448 33.9627 150.648 34.1373L151.965 32.6322ZM150.348 31.7722C149.72 31.5806 148.946 31.5029 148.066 31.5029V33.5029C148.854 33.5029 149.406 33.5757 149.763 33.6849L150.348 31.7722ZM148.066 31.5029H145.339V33.5029H148.066V31.5029ZM144.339 32.5029V39.3936H146.339V32.5029H144.339ZM145.339 40.3936H148.353V38.3936H145.339V40.3936ZM148.353 40.3936C149.193 40.3936 149.952 40.2999 150.577 40.061L149.862 38.1929C149.557 38.3095 149.072 38.3936 148.353 38.3936V40.3936ZM150.6 40.0516C151.174 39.8153 151.679 39.4891 152.09 39.0594L150.645 37.6769C150.455 37.8761 150.194 38.0558 149.839 38.2023L150.6 40.0516ZM152.09 39.0601C152.501 38.6308 152.809 38.1333 153.008 37.5746L151.123 36.9058C151.02 37.1948 150.863 37.4492 150.646 37.6763L152.09 39.0601ZM153.011 37.5653C153.198 37.0196 153.291 36.4515 153.291 35.8662H151.291C151.291 36.238 151.233 36.5858 151.119 36.9152L153.011 37.5653ZM154.665 47.2275C154.665 46.5011 154.543 45.8165 154.276 45.193L152.438 45.9808C152.581 46.3144 152.665 46.7235 152.665 47.2275H154.665ZM154.28 45.2023C154.015 44.5658 153.618 44.0215 153.092 43.5861L151.817 45.1268C152.084 45.3477 152.289 45.6236 152.434 45.9715L154.28 45.2023ZM153.092 43.5861C152.568 43.1519 151.931 42.8437 151.215 42.6369L150.66 44.5584C151.174 44.7071 151.549 44.9048 151.817 45.1268L153.092 43.5861ZM151.215 42.6369C150.475 42.4231 149.571 42.3311 148.538 42.3311V44.3311C149.473 44.3311 150.169 44.4167 150.66 44.5584L151.215 42.6369ZM148.538 42.3311H145.339V44.3311H148.538V42.3311ZM144.339 43.3311V50.8779H146.339V43.3311H144.339ZM145.339 51.8779H149.235V49.8779H145.339V51.8779ZM149.235 51.8779C150.046 51.8779 150.778 51.7977 151.407 51.6109L150.837 49.6938C150.453 49.8078 149.928 49.8779 149.235 49.8779V51.8779ZM151.423 51.6059C152.046 51.4093 152.606 51.1215 153.086 50.7303L151.823 49.1798C151.565 49.3902 151.237 49.5673 150.821 49.6988L151.423 51.6059ZM153.09 50.7278C153.59 50.3163 153.979 49.8107 154.247 49.2204L152.426 48.3928C152.284 48.7049 152.085 48.9649 151.82 49.1824L153.09 50.7278ZM154.241 49.2324C154.531 48.6164 154.665 47.9414 154.665 47.2275H152.665C152.665 47.6895 152.579 48.0672 152.432 48.3808L154.241 49.2324ZM174.771 44.9307L173.877 44.4819L173.771 44.6937V44.9307H174.771ZM174.627 54.6309L173.874 53.9724L173.85 54.0007L173.827 54.0309L174.627 54.6309ZM173.355 55.0615L173.241 54.0681L173.236 54.0686L173.355 55.0615ZM169.91 54.8975L169.594 55.8461L169.603 55.8491L169.612 55.8519L169.91 54.8975ZM169.356 44.9307H170.356V44.6937L170.25 44.4819L169.356 44.9307ZM162.097 30.4727L162.99 30.0239L162.986 30.0159L162.097 30.4727ZM161.584 29.3037L160.611 29.5353L160.618 29.5634L160.626 29.5911L161.584 29.3037ZM161.707 28.668L162.38 29.4079L162.383 29.4051L161.707 28.668ZM162.589 28.4014L162.653 29.3993L162.669 29.3983L162.685 29.3967L162.589 28.4014ZM165.85 28.3809L165.776 29.3781L165.778 29.3783L165.85 28.3809ZM166.752 28.5449L166.401 29.4813L166.427 29.4911L166.454 29.4994L166.752 28.5449ZM167.224 28.832L166.434 29.446L166.454 29.4719L166.476 29.4964L167.224 28.832ZM167.531 29.3037L168.442 28.8912L168.434 28.8737L168.426 28.8565L167.531 29.3037ZM170.484 35.8252L169.573 36.2377L169.575 36.2405L170.484 35.8252ZM171.325 37.8145L170.394 38.1795L170.397 38.1874L170.401 38.1952L171.325 37.8145ZM172.187 40.0088L171.25 40.3599L171.494 41.0088H172.187V40.0088ZM172.228 40.0088V41.0088H172.936L173.171 40.3407L172.228 40.0088ZM173.827 35.8662L172.915 35.4563L172.909 35.4703L172.903 35.4845L173.827 35.8662ZM176.739 29.3857L177.651 29.7956L177.676 29.7411L177.694 29.684L176.739 29.3857ZM176.985 28.873L176.204 28.2483L176.196 28.2591L176.985 28.873ZM181.518 28.4014L181.421 29.3967L181.438 29.3984L181.455 29.3994L181.518 28.4014ZM182.399 28.668L181.692 29.3751L181.724 29.4072L181.759 29.4362L182.399 28.668ZM182.03 30.4727L182.924 30.9214L182.925 30.9199L182.03 30.4727ZM173.771 44.9307V54.2617H175.771V44.9307H173.771ZM173.771 54.2617C173.771 54.2106 173.78 54.1522 173.803 54.0941C173.825 54.0369 173.853 53.9964 173.874 53.9724L175.38 55.2894C175.624 55.0102 175.771 54.6568 175.771 54.2617H173.771ZM173.827 54.0309C173.876 53.9654 173.921 53.9356 173.931 53.9293C173.941 53.9233 173.928 53.9327 173.88 53.9488L174.513 55.8461C174.807 55.7479 175.171 55.5725 175.427 55.2309L173.827 54.0309ZM173.88 53.9488C173.769 53.9858 173.566 54.0306 173.241 54.0681L173.47 56.0549C173.856 56.0104 174.213 55.9458 174.513 55.8461L173.88 53.9488ZM173.236 54.0686C172.949 54.1032 172.561 54.123 172.064 54.123V56.123C172.605 56.123 173.079 56.1019 173.475 56.0544L173.236 54.0686ZM172.064 54.123C171.551 54.123 171.157 54.1031 170.87 54.0686L170.632 56.0544C171.028 56.102 171.51 56.123 172.064 56.123V54.123ZM170.87 54.0686C170.562 54.0317 170.348 53.9865 170.208 53.943L169.612 55.8519C169.91 55.9452 170.256 56.0093 170.632 56.0544L170.87 54.0686ZM170.226 53.9488C170.178 53.9327 170.165 53.9233 170.175 53.9293C170.185 53.9356 170.23 53.9654 170.28 54.0309L168.68 55.2309C168.936 55.5725 169.299 55.7479 169.594 55.8461L170.226 53.9488ZM170.28 54.0309C170.299 54.0575 170.321 54.0945 170.336 54.1403C170.351 54.1862 170.356 54.2284 170.356 54.2617H168.356C168.356 54.6148 168.468 54.9484 168.68 55.2309L170.28 54.0309ZM170.356 54.2617V44.9307H168.356V54.2617H170.356ZM170.25 44.4819L162.99 30.0239L161.203 30.9214L168.463 45.3794L170.25 44.4819ZM162.986 30.0159C162.733 29.5221 162.597 29.1988 162.542 29.0164L160.626 29.5911C160.736 29.9555 160.941 30.4115 161.207 30.9295L162.986 30.0159ZM162.557 29.0721C162.544 29.019 162.56 29.0445 162.545 29.1195C162.537 29.1598 162.521 29.211 162.491 29.2659C162.461 29.3213 162.422 29.3694 162.38 29.4079L161.034 27.928C160.502 28.4121 160.501 29.0719 160.611 29.5353L162.557 29.0721ZM162.383 29.4051C162.32 29.4623 162.285 29.4623 162.34 29.4457C162.392 29.43 162.491 29.4098 162.653 29.3993L162.525 27.4034C162.051 27.434 161.46 27.5381 161.031 27.9308L162.383 29.4051ZM162.685 29.3967C163.062 29.3603 163.612 29.3398 164.353 29.3398V27.3398C163.589 27.3398 162.964 27.3604 162.493 27.406L162.685 29.3967ZM164.353 29.3398C164.971 29.3398 165.442 29.3534 165.776 29.3781L165.924 27.3836C165.519 27.3536 164.992 27.3398 164.353 27.3398V29.3398ZM165.778 29.3783C166.118 29.4026 166.311 29.4475 166.401 29.4813L167.103 27.6086C166.756 27.4782 166.346 27.4138 165.921 27.3834L165.778 29.3783ZM166.454 29.4994C166.503 29.515 166.519 29.5255 166.514 29.5222C166.507 29.5181 166.473 29.4958 166.434 29.446L168.013 28.2181C167.746 27.8748 167.377 27.6925 167.05 27.5904L166.454 29.4994ZM166.476 29.4964C166.513 29.5376 166.569 29.6159 166.637 29.7509L168.426 28.8565C168.302 28.6087 168.153 28.3725 167.971 28.1677L166.476 29.4964ZM166.62 29.7162L169.573 36.2377L171.395 35.4127L168.442 28.8912L166.62 29.7162ZM169.575 36.2405C169.854 36.8516 170.127 37.4978 170.394 38.1795L172.256 37.4494C171.977 36.7366 171.689 36.0566 171.394 35.4099L169.575 36.2405ZM170.401 38.1952C170.683 38.8819 170.967 39.6034 171.25 40.3599L173.123 39.6577C172.832 38.8829 172.541 38.1416 172.25 37.4337L170.401 38.1952ZM172.187 41.0088H172.228V39.0088H172.187V41.0088ZM173.171 40.3407C173.427 39.6131 173.689 38.9064 173.958 38.2206L172.096 37.4904C171.818 38.1991 171.548 38.928 171.284 39.6769L173.171 40.3407ZM173.958 38.2206C174.23 37.5283 174.494 36.8708 174.751 36.248L172.903 35.4845C172.641 36.1194 172.372 36.7881 172.096 37.4904L173.958 38.2206ZM174.739 36.2761L177.651 29.7956L175.827 28.9759L172.915 35.4563L174.739 36.2761ZM177.694 29.684C177.716 29.6115 177.737 29.5603 177.754 29.5262C177.77 29.4918 177.779 29.4818 177.775 29.487L176.196 28.2591C176.001 28.51 175.874 28.8032 175.785 29.0875L177.694 29.684ZM177.766 29.4977C177.743 29.5269 177.743 29.5078 177.828 29.4734L177.086 27.6164C176.761 27.7461 176.447 27.9458 176.205 28.2484L177.766 29.4977ZM177.828 29.4734C177.9 29.4449 178.066 29.4016 178.375 29.3779L178.221 27.3838C177.819 27.4148 177.425 27.4809 177.086 27.6164L177.828 29.4734ZM178.375 29.3779C178.694 29.3534 179.137 29.3398 179.713 29.3398V27.3398C179.114 27.3398 178.613 27.3537 178.221 27.3838L178.375 29.3779ZM179.713 29.3398C180.482 29.3398 181.046 29.3604 181.421 29.3967L181.614 27.406C181.142 27.3603 180.503 27.3398 179.713 27.3398V29.3398ZM181.455 29.3994C181.627 29.4101 181.728 29.4309 181.777 29.4457C181.8 29.4526 181.8 29.4549 181.786 29.4472C181.771 29.4393 181.735 29.4177 181.692 29.3751L183.107 27.9609C182.676 27.5298 182.044 27.4323 181.58 27.4033L181.455 29.3994ZM181.759 29.4362C181.717 29.4009 181.673 29.3527 181.637 29.2916C181.602 29.2307 181.581 29.1706 181.571 29.1195C181.553 29.0235 181.574 28.9819 181.561 29.029L183.484 29.5784C183.624 29.0888 183.628 28.3903 183.04 27.8997L181.759 29.4362ZM181.561 29.029C181.505 29.2264 181.373 29.5507 181.136 30.0254L182.925 30.9199C183.18 30.4103 183.376 29.9552 183.484 29.5784L181.561 29.029ZM181.137 30.0239L173.877 44.4819L175.664 45.3794L182.924 30.9214L181.137 30.0239ZM209.022 54.5693L208.371 53.8101L208.357 53.8221L208.344 53.8345L209.022 54.5693ZM208.366 54.9385L208.633 55.902L208.65 55.8973L208.667 55.8921L208.366 54.9385ZM204.059 54.8975L203.789 55.8605L203.799 55.8631L204.059 54.8975ZM203.095 54.3848L202.424 55.1263L202.443 55.143L202.462 55.1587L203.095 54.3848ZM202.254 53.3594L201.406 53.8894L201.41 53.8955L201.414 53.9015L202.254 53.3594ZM201.331 51.6777L202.226 51.2305L202.22 51.2191L202.214 51.2079L201.331 51.6777ZM194.728 39.2705L193.84 39.7309L193.845 39.7403L194.728 39.2705ZM193.559 36.8916L192.651 37.3098L192.653 37.3153L193.559 36.8916ZM192.493 34.3896L193.424 34.0264L193.176 33.3896H192.493V34.3896ZM192.452 34.3896V33.3896H191.394L191.453 34.4451L192.452 34.3896ZM192.575 37.3428L191.575 37.3705L191.575 37.3709L192.575 37.3428ZM192.493 54.6104L191.693 54.0104L191.667 54.0443L191.645 54.0804L192.493 54.6104ZM192.103 54.8975L192.462 55.8308L192.48 55.824L192.497 55.8166L192.103 54.8975ZM188.227 54.8975L187.808 55.8054L187.838 55.8191L187.868 55.8308L188.227 54.8975ZM188.309 28.9551L188.957 29.7163L188.96 29.7143L188.309 28.9551ZM193.908 28.6064L193.648 29.5721L193.665 29.5768L193.683 29.5808L193.908 28.6064ZM194.851 29.0371L194.251 29.8371L194.26 29.8441L194.27 29.8508L194.851 29.0371ZM195.651 29.8984L194.819 30.4531L194.824 30.4604L194.829 30.4676L195.651 29.8984ZM196.41 31.2314L195.511 31.6694L195.519 31.6857L195.527 31.7016L196.41 31.2314ZM201.578 40.9316L202.468 40.4762L202.464 40.4688L202.46 40.4614L201.578 40.9316ZM202.459 42.6748L201.565 43.122L201.571 43.1349L201.578 43.1476L202.459 42.6748ZM203.321 44.377L202.418 44.8069L202.422 44.8154L203.321 44.377ZM204.879 47.6787L203.967 48.0891L204.233 48.6787H204.879V47.6787ZM204.9 47.6787V48.6787H205.944L205.899 47.6359L204.9 47.6787ZM204.797 44.6846L203.797 44.6977L203.798 44.7109L204.797 44.6846ZM206.069 28.4424L206.155 29.4386L206.177 29.4368L206.198 29.434L206.069 28.4424ZM208.448 28.4424L208.318 29.434L208.34 29.4368L208.361 29.4386L208.448 28.4424ZM209.165 28.6064L208.718 29.5009L208.732 29.5079L208.746 29.5144L209.165 28.6064ZM208.637 53.1133C208.637 53.311 208.603 53.4494 208.559 53.548L210.387 54.3602C210.562 53.9666 210.637 53.5444 210.637 53.1133H208.637ZM208.559 53.548C208.506 53.6677 208.442 53.7492 208.371 53.8101L209.673 55.3286C209.984 55.0613 210.221 54.7327 210.387 54.3602L208.559 53.548ZM208.344 53.8345C208.287 53.8869 208.202 53.9415 208.064 53.9849L208.667 55.8921C209.049 55.7713 209.401 55.5799 209.7 55.3041L208.344 53.8345ZM208.098 53.975C207.941 54.0187 207.778 54.041 207.607 54.041V56.041C207.956 56.041 208.299 55.995 208.633 55.902L208.098 53.975ZM207.607 54.041H205.31V56.041H207.607V54.041ZM205.31 54.041C204.895 54.041 204.569 53.9991 204.319 53.9318L203.799 55.8631C204.26 55.9872 204.768 56.041 205.31 56.041V54.041ZM204.329 53.9345C204.132 53.8794 203.933 53.7778 203.728 53.6108L202.462 55.1587C202.859 55.4839 203.302 55.7241 203.789 55.8604L204.329 53.9345ZM203.766 53.6432C203.56 53.4568 203.334 53.1884 203.095 52.8172L201.414 53.9015C201.721 54.378 202.056 54.7932 202.424 55.1263L203.766 53.6432ZM203.102 52.8294C202.852 52.4281 202.56 51.8979 202.226 51.2305L200.437 52.1249C200.787 52.8248 201.11 53.4156 201.406 53.8894L203.102 52.8294ZM202.214 51.2079L195.611 38.8007L193.845 39.7403L200.449 52.1476L202.214 51.2079ZM195.616 38.8102C195.24 38.0854 194.856 37.3047 194.465 36.4679L192.653 37.3153C193.055 38.1738 193.45 38.9791 193.84 39.7308L195.616 38.8102ZM194.467 36.4735C194.078 35.6285 193.731 34.8129 193.424 34.0264L191.561 34.7529C191.883 35.5797 192.247 36.432 192.651 37.3097L194.467 36.4735ZM192.493 33.3896H192.452V35.3896H192.493V33.3896ZM191.453 34.4451C191.507 35.4203 191.548 36.3954 191.575 37.3705L193.574 37.315C193.547 36.3214 193.505 35.3278 193.45 34.3342L191.453 34.4451ZM191.575 37.3709C191.602 38.3316 191.616 39.3271 191.616 40.3574H193.616C193.616 39.3096 193.602 38.2953 193.574 37.3146L191.575 37.3709ZM191.616 40.3574V54.2412H193.616V40.3574H191.616ZM191.616 54.2412C191.616 54.2079 191.621 54.1657 191.636 54.1198C191.651 54.074 191.673 54.037 191.693 54.0104L193.293 55.2104C193.504 54.9279 193.616 54.5943 193.616 54.2412H191.616ZM191.645 54.0804C191.692 54.005 191.739 53.968 191.751 53.9591C191.762 53.9505 191.753 53.9593 191.709 53.9783L192.497 55.8166C192.77 55.6994 193.116 55.4995 193.341 55.1404L191.645 54.0804ZM191.744 53.9641C191.673 53.9915 191.516 54.0333 191.235 54.0699L191.494 56.0531C191.842 56.0077 192.178 55.9402 192.462 55.8308L191.744 53.9641ZM191.235 54.0699C190.98 54.1032 190.624 54.123 190.155 54.123V56.123C190.669 56.123 191.12 56.1019 191.494 56.0531L191.235 54.0699ZM190.155 54.123C189.7 54.123 189.35 54.1033 189.095 54.0699L188.836 56.0531C189.209 56.1018 189.652 56.123 190.155 56.123V54.123ZM189.095 54.0699C188.814 54.0333 188.657 53.9915 188.586 53.9641L187.868 55.8308C188.152 55.9402 188.487 56.0077 188.836 56.0531L189.095 54.0699ZM188.646 53.9895C188.61 53.9727 188.604 53.9657 188.615 53.9748C188.628 53.9844 188.666 54.0172 188.706 54.0804L187.01 55.1404C187.222 55.4796 187.539 55.6812 187.808 55.8054L188.646 53.9895ZM188.706 54.0804C188.722 54.1063 188.736 54.1364 188.744 54.1684C188.753 54.1999 188.755 54.2255 188.755 54.2412H186.755C186.755 54.5536 186.836 54.8624 187.01 55.1404L188.706 54.0804ZM188.755 54.2412V30.3906H186.755V54.2412H188.755ZM188.755 30.3906C188.755 29.9398 188.878 29.7837 188.957 29.7163L187.661 28.1938C187.001 28.7554 186.755 29.5563 186.755 30.3906H188.755ZM188.96 29.7143C189.145 29.5552 189.374 29.4629 189.704 29.4629V27.4629C188.94 27.4629 188.238 27.6987 187.658 28.1958L188.96 29.7143ZM189.704 29.4629H192.595V27.4629H189.704V29.4629ZM192.595 29.4629C193.06 29.4629 193.404 29.5064 193.648 29.5721L194.168 27.6408C193.701 27.5151 193.17 27.4629 192.595 27.4629V29.4629ZM193.683 29.5808C193.912 29.6337 194.096 29.7212 194.251 29.8371L195.451 28.2371C195.059 27.9428 194.615 27.7433 194.132 27.6321L193.683 29.5808ZM194.27 29.8508C194.437 29.97 194.623 30.1599 194.819 30.4531L196.483 29.3437C196.186 28.8987 195.84 28.5144 195.432 28.2234L194.27 29.8508ZM194.829 30.4676C195.037 30.7693 195.266 31.1663 195.511 31.6694L197.309 30.7935C197.034 30.2301 196.756 29.7385 196.473 29.3292L194.829 30.4676ZM195.527 31.7016L200.695 41.4018L202.46 40.4614L197.292 30.7612L195.527 31.7016ZM200.687 41.3871C200.987 41.9723 201.279 42.5506 201.565 43.122L203.354 42.2276C203.065 41.6505 202.77 41.0667 202.468 40.4762L200.687 41.3871ZM201.578 43.1476C201.871 43.6941 202.151 44.2471 202.418 44.8069L204.224 43.947C203.943 43.3583 203.649 42.7766 203.341 42.202L201.578 43.1476ZM202.422 44.8154C202.694 45.3729 202.959 45.9235 203.217 46.4671L205.024 45.609C204.762 45.0589 204.494 44.5021 204.219 43.9385L202.422 44.8154ZM203.217 46.4671C203.474 47.0079 203.724 47.5485 203.967 48.0891L205.791 47.2683C205.542 46.7152 205.286 46.162 205.024 45.609L203.217 46.4671ZM204.879 48.6787H204.9V46.6787H204.879V48.6787ZM205.899 47.6359C205.858 46.6848 205.824 45.6923 205.797 44.6583L203.798 44.7109C203.825 45.755 203.859 46.7586 203.901 47.7215L205.899 47.6359ZM205.797 44.6714C205.784 43.6363 205.777 42.6495 205.777 41.7109H203.777C203.777 42.6591 203.784 43.6547 203.797 44.6977L205.797 44.6714ZM205.777 41.7109V29.2627H203.777V41.7109H205.777ZM205.777 29.2627C205.777 29.296 205.771 29.3383 205.756 29.3841C205.741 29.4299 205.72 29.4669 205.7 29.4936L204.1 28.2936C203.888 28.576 203.777 28.9096 203.777 29.2627H205.777ZM205.7 29.4936C205.682 29.5169 205.667 29.5333 205.656 29.5436C205.645 29.5539 205.638 29.5587 205.637 29.559C205.637 29.5593 205.642 29.556 205.653 29.5498C205.664 29.5437 205.681 29.5354 205.704 29.5256L204.916 27.6873C204.641 27.8051 204.328 27.9893 204.1 28.2936L205.7 29.4936ZM205.704 29.5256C205.761 29.5011 205.898 29.461 206.155 29.4386L205.982 27.4461C205.611 27.4785 205.242 27.5477 204.916 27.6873L205.704 29.5256ZM206.198 29.434C206.453 29.4007 206.809 29.3809 207.279 29.3809V27.3809C206.764 27.3809 206.313 27.402 205.939 27.4508L206.198 29.434ZM207.279 29.3809C207.718 29.3809 208.061 29.4005 208.318 29.434L208.577 27.4508C208.205 27.4023 207.769 27.3809 207.279 27.3809V29.3809ZM208.361 29.4386C208.485 29.4494 208.576 29.4641 208.64 29.4788C208.706 29.4939 208.727 29.5052 208.718 29.5009L209.613 27.712C209.283 27.5471 208.897 27.4777 208.534 27.4461L208.361 29.4386ZM208.746 29.5144C208.783 29.5312 208.789 29.5382 208.777 29.5291C208.765 29.5195 208.726 29.4867 208.687 29.4236L210.383 28.3636C210.171 28.0243 209.854 27.8227 209.584 27.6985L208.746 29.5144ZM208.687 29.4236C208.67 29.3976 208.657 29.3675 208.648 29.3355C208.639 29.304 208.637 29.2784 208.637 29.2627H210.637C210.637 28.9503 210.556 28.6415 210.383 28.3636L208.687 29.4236ZM208.637 29.2627V53.1133H210.637V29.2627H208.637Z" fill="#505050"/>
</svg>
